<?xml version="1.0" encoding="utf-8"?>
<!-- Generator: Adobe Illustrator 25.4.2, SVG Export Plug-In . SVG Version: 6.00 Build 0)  -->
<svg version="1.1" id="Capa_1" xmlns="http://www.w3.org/2000/svg" xmlns:xlink="http://www.w3.org/1999/xlink" x="0px" y="0px"
	 viewBox="0 0 8192 1288.5" style="enable-background:new 0 0 8192 1288.5;" xml:space="preserve">
<style type="text/css">
	.st0{fill:#FEE3EC;}
	.st1{fill:none;stroke:#B97600;stroke-width:10.2554;stroke-miterlimit:10;}
	.st2{clip-path:url(#SVGID_00000110451618731323429170000006880772029878135184_);}
	.st3{fill:#F9C5D5;}
</style>
<path class="st0" d="M-3.6-2.2v1012.3c0,0,1813.7-1041.9,3696.1-391.9c0,0,3078.3,947.7,4503.4,411.5l-3.1-1032H-3.6z"/>
<path class="st1" d="M8196,1098c-1425.1,536.2-4503.4-411.5-4503.4-411.5C1810.1,36.4-3.6,1078.3-3.6,1078.3"/>
<g>
	<defs>
		<path id="SVGID_1_" d="M-3.6-2.7v1012.7c0,0,1814.4-1042.3,3697.5-392c0,0,3079.5,948,4505.1,411.7L8196-2.7H-3.6z"/>
	</defs>
	<clipPath id="SVGID_00000157299975997009433980000013503298725374247841_">
		<use xlink:href="#SVGID_1_"  style="overflow:visible;"/>
	</clipPath>
	<g style="clip-path:url(#SVGID_00000157299975997009433980000013503298725374247841_);">
		<g>
			<g>
				<g>
					<path class="st3" d="M1719.5,539.8c72.9,18,144.9,39.2,215.9,63.7c34.4,11.9,68.8,24.1,102.4,38c28.9,11.9,58.6,28.3,67.8,60.4
						c4.6,15.9,4.8,33,6.2,49.4c1.5,17.6,3.3,35.2,5.4,52.8c4.2,36,9.4,71.8,15.7,107.5c5.8,32.8,11.1,66.6,22.6,98
						c10.4,28.5,27.5,53.3,50,73.6c22.5,20.4,48.9,36.2,75.9,49.9c13.6,6.9,27.5,13.3,41.4,19.5c9.9,4.4,22.8,12.3,34,8.5
						c13.6-4.6,12.9-21.4,12.5-33c-0.6-14.6-1.4-29.3-2.6-43.9c-2.4-28.5-6.6-57.1-15.7-84.2c-9.2-27.2-23.8-52-44.3-72.1
						c-24.4-23.9-54.3-41.3-78.7-65.3c-23.2-22.8-42-50.3-55-80.1c-11.8-27.2-17.3-57-32.1-82.9c-16.7-29.2-45.7-43.8-75.9-55.8
						c-34.9-13.8-70-27.2-105.2-40.3c-35.3-13.2-70.7-26.1-106.3-38.7c-17.8-6.3-35.6-12.5-53.4-18.6c-15.7-5.4-31.3-11.4-47.3-15.9
						c-11.2-3.1-23-4.4-33.3,1.8c-1.9,1.2-1.2,4.3,1,4.6c120.2,20.5,229.9,76.4,345.7,112c116,35.6,250.8,49,340.6,139.3
						c19.9,20,37.2,45.3,41.1,73.9c4.3,31.3-13.8,59.1-13.7,89.9c1-0.9,2-1.8,3-2.7c-68.6-18.2-124.9-74.6-143.7-143
						c-8.5-31.1-5.4-70.4-32.3-93.1c-15.7-13.2-37.2-19.6-56-26.9c-21.3-8.3-42.8-16.2-64.4-23.7c-48.3-16.6-97.3-31.1-146.8-43.5
						c-3.2-0.8-4.1,4.2-0.9,5c71.3,19.5,142.7,38.9,214,58.4c71.1,19.4,143.5,37.8,209.1,72.4c61.6,32.6,115.3,81.7,184.8,97.2
						c57.5,12.8,118.1,4.1,173-15.6c69.7-25,131.3-67.5,191.8-109.3c1.7-1.2,1.3-3.5-0.3-4.4c-42.8-24.1-86.2-47.4-130-69.7
						c-36.6-18.7-73.5-37.4-112.4-50.9c-35.5-12.4-73.2-20.6-111-17.8c-35.3,2.6-67.6,15.9-97.8,33.8
						c-60.7,36.2-116.5,90.3-191.7,89.4c-44.6-0.5-87.4-16.9-129.2-30.6c-45.8-15.1-91.7-30-137.6-44.8
						c-94.1-30.4-188.4-60.4-282.4-91.2c-11.5-3.8-22.9-7.5-34.4-11.3c-3-1-5.4,3.4-2.2,4.6c149.9,58.6,305.3,101.2,461.5,139.6
						c38.9,9.6,77.8,18.9,116.8,28.1c31.3,7.4,62.8,14.4,94.8,17.7c30.4,3.1,61.3,3,91.1-4.1c29.7-7,56.4-21.4,80.1-40.5
						c54-43.5,93.1-107,158.4-135.5c1.7-0.8,2.4-3,0.8-4.4c-86.8-75.8-229.2-75.3-316.4-0.2c-48.7,42-76.2,113.3-141.4,134
						c-32,10.1-66.4,5.8-98.4-2c-36.2-8.9-71.6-21.7-107-33.2c-92.3-29.9-184.6-59.7-276.9-89.6c-2.7-0.9-3.6,2.9-2.1,4.5
						c28.3,31.1,66.5,50.2,97.9,77.7c15.5,13.6,29.2,29.6,36.6,49.2c8.4,22.1,7.6,46,3.6,69c-4.4,25.1-11.8,49.7-19.2,74
						c-8.4,27.4-17.9,54.4-28.4,81.1c-9.5,24.1-20,49-39.5,66.9c-14.3,13.1-32.5,21-51,26.1c-41.2,11.4-85.6,11.2-124.2,31.4
						c1.3,0.9,2.6,1.7,4,2.6c11.9-77.3,39.8-151.7,81.6-217.8c21-33.2,46-62.6,72.1-91.8c22-24.6,40.7-53.3,32-87.6
						c-8-31.6-33.4-56.4-56.6-77.8c-1.1,1.3-2.2,2.6-3.4,3.9c21.3,17.1,51,14.4,74.8,4.2c27.3-11.7,50.2-31.5,78.6-41.1
						c27.2-9.2,56.2-10.7,84.6-12.7c28.2-2.1,56-5.7,83.3-13.3c54.9-15.4,105.5-42.8,153.7-72.6c51.5-31.8,103.6-64.7,150.6-103
						c23.1-18.8,45-39.4,63.8-62.6c9.1-11.3,17.5-23.2,25-35.7c6.8-11.4,13.6-23.4,17-36.3c2.8-10.6,2.4-22.3-4.9-31.1
						c-8-9.7-21.3-12.1-33.2-12.7c-15-0.7-30.3,0.8-45.3,1.5c-15.4,0.8-30.8,1.6-46.2,2.7c-115.4,8-237,31-324,113.4
						c-19.8,18.8-37,40.3-50.4,64.2c-16.2,29.1-25.6,61.2-38.4,91.8c-12.5,30-29.6,56.6-52.4,79.8c-21.7,22-46.6,40.5-72.3,57.6
						c-12.7,8.5-25.5,16.6-38.4,24.7c1,0.1,2.1,0.1,3.1,0.2c-17.7-18.5-42-28.8-67.5-29c0.1,1.7,0.3,3.4,0.4,5.1
						c49.3-9.6,87.7-47.1,107.4-92.2c21.7-49.7,18.6-105.1-0.5-155.1c-10.1-26.4-24.3-51.3-40.9-74.2c-8-11-16.6-21.6-25.7-31.8
						c-7.5-8.4-18.4-18.6-29.8-10.2c-7.9,5.9-10.7,17.4-11.7,26.7c-1.5,15.1-1.6,30.5-1,45.6c1.3,30.9,6.6,61.7,15.7,91.2
						c10.6,34.5,28.3,66.9,35.2,102.5c6.5,33.7,0.9,74-28.5,95.6c-2.7,2,0.2,6.2,2.9,4.2c21.7-15.9,31.7-42,33.1-68.2
						c1.5-28.7-7.7-56.3-17.9-82.6c-10.9-28.1-22-55.9-28.1-85.5c-5.9-28.6-8.3-58-7.1-87.3c0.5-11.7,0.1-27.5,8.9-36.6
						c12.2-12.7,28.1,11.5,35.1,20c17.4,21,32.7,43.8,44.8,68.3c23.1,47,33.8,101.5,19.1,152.7c-15.1,52.7-55.7,100.7-111.2,111.5
						c-3.2,0.6-2.9,5.1,0.4,5.1c24.2,0.2,47,10.3,63.7,27.8c0.8,0.8,2.2,0.8,3.1,0.2c48.8-30.7,99.4-62.7,134.4-109.5
						c37.4-49.9,45.5-114.2,80.6-165.3c65.4-95.4,181.8-135.3,291.8-149.4c29.8-3.8,59.8-6.1,89.8-7.8c14.6-0.8,29.3-1.5,43.9-2.2
						c14.6-0.7,31.3-2.8,44.8,3.8c29.5,14.4,4.7,53.8-6.6,72.2c-15.7,25.5-35.7,48.3-57.5,68.8c-43.2,40.6-93.7,72.7-143.3,104.7
						c-46.9,30.3-94.8,59.8-147,80.3c-25.8,10.1-52.5,18-79.9,22.2c-27.3,4.3-55,4.5-82.4,7.8c-26.1,3.1-50.9,9.6-74,22.4
						c-25.5,14.2-49.7,33.4-79.9,35.9c-14.3,1.2-28.6-1.7-40-10.9c-2.6-2.1-5.8,1.6-3.4,3.9c21.1,19.5,43.6,41.2,53.1,69
						c5.4,15.5,5.3,32.1-0.7,47.5c-7.1,18.1-20.3,32.8-33.3,47c-50.1,54.8-90.6,116.5-117.6,185.9c-15.2,39-26.1,79.5-32.4,120.8
						c-0.4,2.3,2.1,3.6,4,2.6c36.5-19.1,78.8-19.6,118.1-29.5c18.2-4.6,36.1-11.4,51.1-22.9c19.8-15.2,31.9-37.2,41.5-59.8
						c11-26,20.5-52.8,29.2-79.6c8.4-25.9,16.3-52.2,22.2-78.8c4.8-22.2,7.7-45.4,3.2-67.9c-4-20-14.1-37.7-27.7-52.7
						c-32.9-36.3-79.9-56-112.8-92.3c-0.7,1.5-1.4,3-2.1,4.5c81.6,26.4,163.2,52.8,244.8,79.2c38,12.3,75.9,25.2,114.1,36.7
						c30.2,9,61.8,16.5,93.5,14.6c32-2,60.2-15.3,83.7-36.8c24.4-22.4,42.8-50.4,64.2-75.6c19.6-23.1,42.2-42.4,69.1-56.4
						c26-13.6,54.7-22,83.8-25.5c65.5-7.8,134.3,9.8,184.5,53.6c0.3-1.5,0.6-2.9,0.8-4.4c-56.5,24.6-94,75.4-137.5,116.7
						c-22.5,21.4-47.5,40.7-76.7,51.9c-29.1,11.1-60.6,14.2-91.5,12.9c-31.9-1.4-63.5-7.4-94.6-14.3c-37.1-8.3-74.1-17.5-111.1-26.5
						c-77.4-18.8-154.6-38.4-231.1-60.3c-86.5-24.8-172.2-52.7-256.1-85.4c-0.7,1.5-1.5,3.1-2.2,4.6c92.4,30.6,185.1,60.2,277.8,90
						c47.4,15.3,94.8,30.5,142.2,46c41.9,13.7,83.9,30.2,127.3,38.4c37.6,7,74.8,4.4,110.1-10.8c31.6-13.5,59.7-33.8,88-53
						c29.2-19.8,59.4-39.3,93.7-49c37.7-10.7,77.5-7.8,115.1,1.9c38.8,10,75.5,26.7,111.3,44.4c43.6,21.6,86.8,44.3,129.5,67.8
						c10.5,5.8,20.9,11.6,31.4,17.5c-0.1-1.5-0.2-3-0.3-4.4c-101.4,69.9-218,148-347.8,126.6c-69.9-11.5-123.7-57.8-183.4-92
						c-62.5-35.7-132.4-55.3-201.4-74.1c-78.8-21.5-157.6-43-236.4-64.5c-0.3,1.7-0.6,3.4-0.9,5c45,11.2,89.5,24.1,133.5,38.9
						c21.7,7.3,43.2,15,64.6,23.2c19.9,7.6,41.9,14.3,60,25.8c32.9,21.1,28.6,64.4,38.1,97.7c9.2,32.4,26.9,62.2,50.1,86.6
						c26.4,27.7,60,48.1,97,58c1.7,0.5,3-1.2,3-2.7c0-28.3,15.9-53.8,14.4-82.3c-1.2-24.4-12.5-47.4-27.2-66.5
						c-36.2-46.9-91.3-77.2-145.8-97.8c-59.1-22.3-121.1-35.2-181.9-52c-60.7-16.8-119.4-39.5-178.3-61.7
						c-64.9-24.4-130.6-47.8-199.2-59.5c0.3,1.5,0.7,3.1,1,4.6c13.2-7.9,29.5-1.2,42.7,3.2c17.4,5.9,34.9,11.9,52.3,17.9
						c34,11.8,67.9,23.9,101.7,36.3c33.8,12.4,67.5,25,101.1,38c16.8,6.5,33.7,12.8,50.4,19.7c16,6.6,31.9,14,45.2,25.3
						c23.7,20.1,32.5,50.2,41.8,78.6c9.4,28.3,21.9,55.1,39.6,79.2c19,26,42.8,46.3,68.3,65.7c25.2,19.1,49.4,38.9,65.4,66.7
						c28.4,49.3,31.9,109.8,33.6,165.3c0.3,8.2,0.4,20.6-9.2,23.8c-7.1,2.4-15.1-1.6-21.5-4.4c-13.6-6-27.2-12.1-40.5-18.6
						c-27.3-13.3-54-28.2-77.3-47.8c-23.7-19.9-42.7-44.4-53.9-73.4c-11.9-30.7-17.2-63.8-23-96c-6.2-34.4-11.4-69-15.6-103.8
						c-2.1-17.6-4-35.2-5.6-52.8c-1.5-16-1.9-32.3-4.7-48.1c-2.4-13.6-7.2-26.5-16-37.3c-8.4-10.3-19.2-18.2-30.7-24.7
						c-12.9-7.3-26.7-12.8-40.5-18.1c-17-6.6-34-13-51.1-19.2c-66.6-24.2-134.3-45.5-202.7-64c-17.2-4.6-34.4-9-51.6-13.3
						C1717.2,534,1716.3,539,1719.5,539.8L1719.5,539.8z"/>
				</g>
				<g>
					<path class="st3" d="M2066.2,640c69.4,35.4,82.2,118.2,99.3,186.2c9.7,38.4,24.4,74.5,43.7,109.1c19.7,35.3,42.8,68.7,66,101.8
						c28.2,40.4,57.2,80.2,86.9,119.5c2,2.6,6.2-0.2,4.2-2.9c-26.7-35.3-52.8-71-78.3-107.2c-23.7-33.7-47.6-67.5-68.3-103.1
						c-20.6-35.2-37.1-72.2-47.5-111.6c-9.8-37-16.1-75.2-30.9-110.8c-14.8-35.5-38-67.8-72.9-85.6
						C2065.4,633.9,2063.2,638.5,2066.2,640L2066.2,640z"/>
				</g>
				<g>
					<path class="st3" d="M2434.7,941.4c-8.8-22.3-17.5-44.7-26.3-67c-7.9-19.8-16.3-39.5-27.8-57.5c-21.7-34.1-51.8-61.9-83.6-86.5
						c-18.5-14.3-37.6-27.5-56.8-40.8c-2.7-1.9-6.1,2-3.4,3.9c33,22.7,66.2,45.7,95.3,73.5c14.6,13.9,28,29,39.5,45.6
						c12.3,17.8,21.4,37.3,29.5,57.3c9.8,24.3,19.2,48.8,28.8,73.2C2431.1,946.1,2435.9,944.4,2434.7,941.4L2434.7,941.4z"/>
				</g>
				<g>
					<path class="st3" d="M2955.3,724.6c-87.5-2-174.2,12.4-261.5,15.7c-88.6,3.3-177.2-5-264.8-17.3c-49.1-6.9-98-15.1-146.9-23.3
						c-3.2-0.5-4.2,4.5-0.9,5c87.7,14.7,175.6,29.4,264.3,36.8c43.5,3.6,87.1,5.4,130.8,4.5c43.8-0.9,87.4-4.9,131-8.8
						c49.4-4.4,99-8.6,148.6-7.4C2959,729.8,2958.6,724.7,2955.3,724.6L2955.3,724.6z"/>
				</g>
				<g>
					<path class="st3" d="M2729.7,534.2c-67.7-3.9-136.1,7.4-198.9,33.2c-34.1,14-65.6,32.8-96.8,52.2c-30.8,19.2-61.5,39.4-95,53.5
						c-32,13.5-65.5,18.5-100.1,15.7c-3.3-0.3-4.2,4.8-0.9,5c29.4,2.4,58.5-0.2,86.5-9.7c32-10.9,61.3-28.7,89.9-46.3
						c32.6-20.1,64.8-41.3,99.6-57.5c31.3-14.6,64.4-25.5,98.2-32.5c38.3-7.9,77.5-10.8,116.5-8.6
						C2732.1,539.5,2733,534.4,2729.7,534.2L2729.7,534.2z"/>
				</g>
				<g>
					<path class="st3" d="M2527.1,153.8c-13,21.3-34.8,34.8-56.1,46.6c-22.7,12.6-45.8,24.3-69.2,35.4
						c-47.1,22.3-95.3,42.2-143.7,61.6c-23.8,9.6-47.6,18.9-71.3,28.7c-22.2,9.2-44.3,19.3-63.8,33.5
						c-39.6,29-65.2,72.7-104.4,102.2c-23.2,17.4-49.1,31-74.2,45.3c-27,15.4-53.9,30.8-80.9,46.2c-2.9,1.6,0,5.9,2.9,4.2
						c24-13.7,48.1-27.5,72.1-41.2c23.2-13.2,46.8-25.8,69.1-40.5c20.7-13.7,38.6-30.3,55.2-48.6c16.7-18.3,32.5-37.7,51.3-53.9
						c19.1-16.5,41.3-28.2,64.4-38.1c23.6-10.2,47.7-19.4,71.6-29c48.7-19.5,97.2-39.3,144.8-61.5c26.2-12.2,52.2-25.2,77.5-39.2
						c22.8-12.6,45.5-26.8,59.4-49.5C2533.4,153.2,2528.8,151,2527.1,153.8L2527.1,153.8z"/>
				</g>
				<g>
					<path class="st3" d="M1817.7,568.5c58.4,31.4,93.5,100.8,83.3,166.4c-6.4,41.7-28.7,78.5-53.1,112.1
						c-12.4,17.1-25.5,33.8-38.2,50.7c-12.3,16.4-23.2,33.8-35.5,50.2c-6.8,9-14.2,17.6-23.1,24.7c-7.7,6.1-16.3,11.1-24.9,16
						c-16.9,9.6-34.9,18.2-49.3,31.6c-2.4,2.2,1.5,5.6,3.9,3.4c13.8-12.8,31.3-21.1,47.6-30.3c16.5-9.3,31.2-19.5,43.4-34.1
						c13.6-16.3,24.6-34.7,37.2-51.9c12.9-17.6,26.4-34.7,39.3-52.2c24.8-33.7,48-70.2,56.3-111.8c6.6-33.2,2.2-67.9-11.5-98.8
						c-15-33.9-40.6-62.9-73.4-80.5C1817,562.3,1814.8,566.9,1817.7,568.5L1817.7,568.5z"/>
				</g>
				<g>
					<path class="st3" d="M1804.9,537.8c40.3-25.7,49.4-76.6,44.7-120.8c-2.6-24.3-8.1-48.4-14.1-72.1
						c-6.2-24.4-13.4-48.5-21.8-72.2c-9.4-26.6-20.1-52.8-32.1-78.3c-1.4-3-6.2-1.3-4.8,1.7c20.4,43.3,37,88.4,49.7,134.5
						c6.4,23.3,12.1,46.9,15.9,70.8c3.7,23.2,5.3,47.2,0.2,70.3c-5.5,24.8-18.7,48.2-40.5,62
						C1799.2,535.4,1802.1,539.6,1804.9,537.8L1804.9,537.8z"/>
				</g>
			</g>
			<polygon class="st3" points="1720.9,533.7 1743,533.8 1743,534.8 1720.9,534.8 			"/>
		</g>
		<g>
			<g>
				<g>
					<path class="st3" d="M4396.9,1204.6c38.5-64.5,79.8-127.2,123.9-188c21.4-29.4,43.1-58.8,66.2-86.9
						c19.8-24.1,44.2-47.8,77.6-47.3c16.6,0.3,32.9,5,49.1,8.4c17.3,3.7,34.7,7.1,52.1,10.3c35.6,6.5,71.5,11.9,107.4,16.3
						c33.1,4,66.9,8.8,100.3,7c30.3-1.6,59-10.8,85-26.3c26.1-15.6,48.9-36.2,69.8-58c10.6-11,20.7-22.4,30.7-34
						c7.1-8.2,18.4-18.2,18-30.1c-0.5-14.4-16.7-18.6-28-21.5c-14.2-3.7-28.4-7.2-42.7-10.3c-27.9-6-56.5-10.3-85.1-9.5
						c-28.7,0.9-56.6,7.6-81.9,21.4c-30,16.4-55.3,39.9-85.4,56.3c-28.6,15.6-60.3,25.6-92.7,29.2c-29.4,3.3-59.6-0.1-88.6,6.5
						c-32.8,7.5-55.2,31-75.5,56.4c-23.4,29.4-46.4,59.1-69.2,88.9c-22.9,29.9-45.6,60.1-68,90.4c-11.2,15.2-22.3,30.4-33.4,45.6
						c-9.7,13.4-20.1,26.7-29,40.6c-6.3,9.8-10.9,20.7-7.9,32.4c0.6,2.2,3.8,2.4,4.7,0.4c54.6-109,140.1-197.7,207.9-298.1
						c67.9-100.6,120-225.6,232.5-285.2c25-13.2,54.2-22.4,82.7-17.8c31.2,5,52.5,30.4,82,39.4c-0.6-1.2-1.2-2.5-1.7-3.7
						c-37.4,60.3-107.8,97.8-178.7,95.8c-32.2-0.9-68.9-15.4-98.5,3.8c-17.2,11.2-29.6,29.9-42.1,45.7c-14.2,18-28,36.2-41.4,54.7
						c-30,41.3-58.1,84-84.4,127.8c-1.7,2.8,2.8,5.1,4.6,2.3c39.4-62.6,78.8-125.2,118.2-187.7c39.3-62.4,78-126.3,130.2-178.9
						c49.1-49.4,111.7-86.5,146.8-148.5c29-51.3,38.4-111.8,35.5-170.1c-3.6-74-26.3-145.3-48.6-215.4c-0.6-1.9-3-2.3-4.3-1
						c-35.6,33.9-70.4,68.6-104.5,104c-28.5,29.6-57.2,59.4-81.5,92.7c-22.2,30.4-41,64.1-49.4,101c-7.8,34.5-4.5,69.3,3.9,103.4
						c16.9,68.6,52.4,137.8,29.7,209.4c-13.5,42.5-41.6,78.7-67,114.7c-27.8,39.4-55.4,79-82.9,118.6
						c-56.5,81.2-112.7,162.6-169.6,243.5c-6.9,9.9-13.9,19.7-20.8,29.6c-1.9,2.6,1.7,6.1,3.8,3.5c99.7-126.3,185.8-262.6,268-400.8
						c20.5-34.4,40.8-68.9,60.9-103.5c16.2-27.8,32.1-55.9,44.6-85.6c11.9-28.1,20.7-57.8,22.7-88.3c2-30.5-4.1-60.2-15.4-88.4
						c-25.8-64.3-75.2-120.3-83.4-191c-0.2-1.9-2.2-3.1-3.9-2.1c-97.8,60.9-138.9,197.3-92.4,302.6c26,58.8,86.2,105.9,87,174.3
						c0.4,33.6-13.8,65.2-30.6,93.5c-19,32.1-41.6,62.1-62.9,92.7c-55.5,79.6-110.9,159.2-166.4,238.8c-1.6,2.3,1.7,4.3,3.6,3.3
						c38-18,67.4-49,102.9-71c17.5-10.9,36.9-19.3,57.7-20.7c23.6-1.6,46.3,6.1,67,16.6c22.7,11.5,44.1,25.8,65.2,40
						c23.8,16,46.9,33,69.3,50.8c20.3,16.1,41.1,33.4,52.5,57.2c8.4,17.5,10.6,37.2,10.1,56.4c-1.1,42.8-14.2,85.2-6.2,128
						c1.2-1,2.4-2,3.6-3c-70.5-33.9-133.5-82.3-184.6-141.6c-25.7-29.8-46.5-62.2-66.8-95.7c-17.1-28.2-39.1-54.4-74.4-56.2
						c-32.6-1.6-63.7,15.5-90.9,31.5c0.9,1.4,1.8,2.9,2.7,4.3c22.5-15.4,28.6-44.6,25.8-70.3c-3.2-29.5-15.5-57.2-16.4-87.1
						c-0.8-28.7,6.2-56.8,12.5-84.6c6.3-27.6,10.9-55.2,11.5-83.6c1.3-57-10.2-113.4-24.6-168.2c-15.4-58.6-31.7-118-54.6-174.1
						c-11.3-27.6-24.6-54.5-41.3-79.3c-8.2-12-17.1-23.5-26.9-34.3c-8.9-9.8-18.5-19.9-29.8-26.8c-9.3-5.7-20.6-8.8-31.1-4.4
						c-11.6,4.9-17.8,16.9-21.8,28.1c-5,14.2-8,29.2-11.7,43.7c-3.8,15-7.5,29.9-10.9,45c-26,112.7-39.5,235.8,14.1,343
						c12.2,24.4,27.8,47.2,46.7,66.9c23.1,24,51.1,42.3,76.6,63.5c25,20.7,45.5,44.8,61,73.4c14.8,27.2,25.1,56.4,34.1,85.9
						c4.4,14.6,8.4,29.3,12.4,44c0.4-1,0.7-2,1.1-2.9c-22.9,11.5-39.8,31.8-47.4,56.1c1.7,0.4,3.3,0.7,5,1.1
						c5.2-50-19.5-97.6-56.9-129.6c-41.2-35.3-95.1-48.4-148.5-44.7c-28.2,2-56.1,8.3-82.9,17.5c-12.9,4.5-25.5,9.6-37.9,15.3
						c-10.2,4.7-23.2,12.2-18.4,25.5c3.4,9.3,13.5,15.3,22.2,18.9c14,5.8,28.7,10.4,43.3,14.3c29.9,7.8,60.9,11.7,91.8,11.6
						c36.1-0.1,72.2-7.6,108.3-3.8c34.1,3.6,71.1,20.7,83.2,55.1c1.1,3.1,6,1.6,4.9-1.5c-8.9-25.4-30.9-42.5-55.6-51.5
						c-27-9.8-56-9-84.3-6.9c-30.1,2.3-59.8,4.8-90,2c-29.1-2.7-58-8.9-85.5-18.6c-11-3.9-26.3-8.1-32.4-19.2
						c-8.6-15.4,19.2-23.5,29.4-27.7c25.2-10.5,51.5-18.5,78.4-22.9c51.7-8.4,106.9-2.8,151.7,26.2c46,29.8,80.1,82.6,74.3,138.9
						c-0.3,3.3,4,4.3,5,1.1c7.2-23.1,23.6-42,45.2-52.9c1-0.5,1.4-1.9,1.1-2.9c-15.1-55.6-31-113.3-65.6-160.5
						c-36.8-50.3-96-76.8-134.7-125.3c-72.2-90.4-76.5-213.4-57.9-322.6c5-29.6,11.6-59,18.7-88.2c3.5-14.2,7.1-28.4,10.7-42.6
						c3.6-14.1,6.4-30.7,16.7-41.8c22.4-24,52.9,11.2,67.1,27.4c19.8,22.5,35.8,48.2,49,75c26.2,53.2,42.2,110.8,58.4,167.6
						c15.3,53.7,29.6,108.2,34,164c2.2,27.6,1.9,55.5-2,82.9c-3.9,27.4-11.7,54-16.6,81.1c-4.7,25.9-5.7,51.5-0.1,77.4
						c6.2,28.6,17.5,57.3,11.1,86.9c-3.1,14.1-10,26.9-22,35.1c-2.7,1.9-0.1,6,2.7,4.3c24.8-14.5,52.1-29.7,81.5-30.7
						c16.4-0.6,32.3,4.3,45.2,14.5c15.2,12.1,25.5,29,35.2,45.5c37.9,63.9,85,120.6,143.5,166.7c32.8,25.9,68.5,48.1,106.1,66.2
						c2.1,1,4-0.9,3.6-3c-7.6-40.5,4.3-81.1,6.2-121.6c0.9-18.7-0.4-37.9-7-55.6c-8.8-23.3-26.3-41.4-45.1-57.1
						c-21.7-18.1-44.5-35-67.7-51.1c-22.3-15.6-45.1-30.8-68.9-44.2c-19.8-11.1-41.2-20.6-64-22.8c-20.3-2-40.1,2.5-58.4,11.2
						c-44.3,20.9-76.9,60.1-121.2,81c1.2,1.1,2.4,2.2,3.6,3.3c49-70.4,98.1-140.7,147.1-211.1c22.8-32.8,46.3-65.2,68.4-98.5
						c17.5-26.2,33.8-54.3,41.2-85.2c7.4-31.2,2.9-62-10.8-90.8c-14.3-29.9-35.7-55.6-53.6-83.4c-16.4-25.4-28.2-52.7-33.8-82.6
						c-5.4-28.8-5.1-58.7,0-87.6c11.6-65,48.5-125.6,105-160.8c-1.3-0.7-2.6-1.4-3.9-2.1c7.1,61.2,44.7,111.9,71.5,165.6
						c13.9,27.8,25.1,57.3,27.2,88.5c2.2,31.1-4,62.1-14.4,91.3c-10.7,30.1-25.5,58.6-41.3,86.3c-18.8,33.1-38.3,65.8-57.7,98.6
						c-40.5,68.5-81.8,136.7-125.1,203.5c-48.9,75.6-100.6,149.4-156.4,220.1c1.3,1.2,2.5,2.3,3.8,3.5
						c56.2-79.5,111.6-159.6,167.1-239.5c28.4-40.9,56.9-81.8,85.5-122.6c25.3-36.1,53.4-71.4,73.8-110.6
						c17.7-34,26-70.2,21.8-108.4c-3.7-34.2-14.9-67-25-99.6c-10.4-33.7-20.3-68.3-19.6-103.9c0.7-39.2,15.1-76.4,35.3-109.6
						c20.8-34.2,47.5-64.4,74.9-93.5c33.4-35.5,67.7-70.1,102.6-104.1c8.6-8.3,17.2-16.7,25.9-24.9c-1.4-0.3-2.9-0.7-4.3-1
						c37.3,117.4,78.1,251.7,19.8,369.6c-31.4,63.5-91.4,101.5-141.4,148.6c-52.4,49.4-91.5,110.5-129.6,171
						c-43.5,69.1-87,138.2-130.6,207.4c1.5,0.8,3,1.6,4.6,2.3c23.8-39.8,49.2-78.6,76.1-116.3c13.3-18.6,27-37,41-55
						c13.1-16.9,25.9-36,42.2-49.9c29.7-25.4,69.9-8.6,104.5-8c33.7,0.6,67.3-7.6,97.4-22.7c34.2-17.1,63.5-43.4,83.7-75.9
						c0.9-1.5-0.3-3.2-1.7-3.7c-27.1-8.2-46.9-30.9-74.6-37.8c-23.7-6-49-1.8-71.5,6.7c-55.4,21-100.5,64.9-136,110.9
						c-38.6,50-69,105.6-102.7,158.9c-33.7,53.2-72.6,102.7-110.9,152.6c-42.2,55-83.8,111-115,173.2c1.6,0.1,3.2,0.3,4.7,0.4
						c-3.8-14.9,7.4-28.6,15.5-39.9c10.7-15,21.5-29.9,32.4-44.8c21.2-29.1,42.7-58,64.4-86.7c21.7-28.7,43.6-57.2,65.8-85.6
						c11.1-14.2,22.1-28.5,33.5-42.4c10.9-13.4,22.7-26.5,37.4-35.9c26.1-16.8,57.5-16.4,87.4-17.1c29.8-0.7,59.1-4.9,87.3-14.8
						c30.4-10.6,56.8-27.4,82.7-46.2c25.6-18.5,51.6-35.9,82.8-43.1c55.4-12.8,114.3,1.5,168,16c7.9,2.1,19.8,5.6,20.1,15.8
						c0.2,7.5-5.9,14-10.5,19.2c-9.7,11.3-19.5,22.5-29.6,33.4c-20.6,22.2-42.7,43.4-68.2,60c-26,16.9-54.9,27.9-85.9,30.2
						c-32.8,2.5-66-2.1-98.6-6c-34.7-4.1-69.4-9.2-103.8-15.3c-17.4-3.1-34.8-6.4-52.1-10c-15.7-3.3-31.4-7.6-47.4-9.5
						c-13.7-1.7-27.4-0.8-40.3,4.4c-12.3,5-23,13.1-32.6,22.2c-10.8,10.2-20,21.9-29.2,33.5c-11.2,14.3-22.3,28.7-33.2,43.3
						c-42.6,56.7-82.7,115.2-120.3,175.2c-9.4,15.1-18.7,30.2-27.8,45.5C4390.7,1205.1,4395.2,1207.4,4396.9,1204.6L4396.9,1204.6z"
						/>
				</g>
				<g>
					<path class="st3" d="M4593.8,902.1c54.1-56.1,137-44.1,207.1-40.7c39.5,1.9,78.4-1.6,117.1-10c39.5-8.6,78.2-21,116.6-33.5
						c46.8-15.2,93.4-31.4,139.6-48.3c3.1-1.1,1.6-6-1.5-4.9c-41.5,15.2-83.3,29.8-125.4,43.7c-39.1,12.9-78.4,25.8-118.5,35.3
						c-39.7,9.4-79.8,14.4-120.6,12.9c-38.3-1.5-76.6-6.6-115-2.8c-38.2,3.8-75.9,16.6-103.1,44.8
						C4587.7,901,4591.5,904.5,4593.8,902.1L4593.8,902.1z"/>
				</g>
				<g>
					<path class="st3" d="M4989.5,637.4c-23.9,1.9-47.9,3.7-71.8,5.6c-21.3,1.7-42.5,4.1-63.1,9.9c-38.9,10.9-74.3,31.5-107.1,54.7
						c-19,13.5-37.3,28-55.6,42.5c-2.6,2,0.1,6.4,2.7,4.3c31.4-25,63-50,98.1-69.7c17.6-9.9,35.9-18.4,55.1-24.5
						c20.6-6.6,41.9-9.6,63.4-11.5c26.1-2.3,52.3-4.1,78.4-6.2C4993,642.3,4992.8,637.1,4989.5,637.4L4989.5,637.4z"/>
				</g>
				<g>
					<path class="st3" d="M4933.8,76.3c-27.4,83.1-38.9,170.3-61.1,254.7c-22.6,85.7-56.4,168-93.7,248.3
						c-20.9,45-43,89.4-65.1,133.7c-1.5,2.9,3.1,5.3,4.6,2.3c39.6-79.6,79.3-159.4,112.2-242.1c16.1-40.5,30.5-81.8,42.4-123.8
						c11.9-42.1,20.7-85,29.7-127.9c10.2-48.6,20.7-97.2,36.2-144.3C4939.9,74.2,4934.9,73.1,4933.8,76.3L4933.8,76.3z"/>
				</g>
				<g>
					<path class="st3" d="M4686,236.5c-23.5,63.7-32.6,132.4-26.2,199.9c3.5,36.7,12.2,72.3,21.7,107.8c9.4,35,19.7,70.3,23.5,106.5
						c3.6,34.6-1.4,68-14.1,100.3c-1.2,3,3.3,5.4,4.6,2.3c10.8-27.4,16.8-56,15.9-85.6c-1.1-33.8-9.6-67-18.1-99.5
						c-9.8-37.1-20.6-74-26-112.1c-4.8-34.2-5.7-69-2.5-103.5c3.6-38.9,12.2-77.3,25.7-114C4691.7,235.8,4687.2,233.4,4686,236.5
						L4686,236.5z"/>
				</g>
				<g>
					<path class="st3" d="M4263,319.5c16.6,18.7,23.1,43.4,28.3,67.3c5.4,25.3,9.9,50.9,13.7,76.5c7.6,51.6,12.6,103.5,17.1,155.4
						c2.2,25.5,4.2,51.1,6.6,76.6c2.3,23.9,5.5,48,13.5,70.7c16.2,46.3,50.6,83.6,67.3,129.7c9.9,27.2,15.3,56,21.7,84.2
						c6.9,30.3,13.7,60.6,20.6,90.9c0.7,3.2,5.6,1.7,4.9-1.5c-6.1-27-12.3-54-18.4-81c-5.9-26-11.1-52.3-18.6-77.9
						c-7-23.8-17.7-45.7-30.4-67c-12.7-21.3-26.6-42-36.6-64.8c-10.2-23.1-14.9-47.8-17.7-72.7c-2.9-25.6-4.7-51.3-6.9-76.9
						c-4.5-52.2-9.3-104.5-16.6-156.4c-4.1-28.7-8.9-57.3-14.9-85.6c-5.4-25.5-12.4-51.4-30.1-71.3
						C4264.3,313.3,4260.9,317.1,4263,319.5L4263,319.5z"/>
				</g>
				<g>
					<path class="st3" d="M4453,1119c47-46.7,123.6-60,183.5-31.2c38,18.3,66.7,50.3,91.8,83.4c12.8,16.9,24.9,34.2,37.4,51.3
						c12.1,16.5,25.6,32,37.6,48.6c6.6,9.1,12.7,18.7,16.9,29.2c3.6,9.2,5.9,18.8,8,28.4c4.2,19,7.2,38.7,15.8,56.3
						c1.4,3,5.8,0.2,4.3-2.7c-8.2-16.9-11.1-36.1-15.1-54.3c-4.1-18.4-9.5-35.5-19.9-51.5c-11.6-17.8-26.1-33.7-38.8-50.7
						c-13-17.5-25.5-35.4-38.5-52.8c-25-33.5-53.1-66.4-90.5-86.5c-29.8-16-64.3-21.9-97.9-17.8c-36.8,4.5-72,20.5-98.4,46.8
						C4446.9,1117.9,4450.7,1121.3,4453,1119L4453,1119z"/>
				</g>
				<g>
					<path class="st3" d="M4419.9,1122.3c-12.8-46-58.9-69.5-102.6-77.9c-24-4.6-48.7-6.3-73.1-7.5c-25.1-1.2-50.3-1.3-75.5-0.2
						c-28.2,1.2-56.3,3.9-84.3,7.9c-3.2,0.5-3.1,5.6,0.2,5.1c47.4-6.9,95.3-9.7,143.2-8.3c24.1,0.7,48.4,2.1,72.3,5.4
						c23.2,3.2,46.7,8.7,67.3,20.3c22.1,12.5,40.6,32,47.5,56.8C4415.9,1127,4420.8,1125.5,4419.9,1122.3L4419.9,1122.3z"/>
				</g>
			</g>
			
				<rect x="4384.2" y="1190.5" transform="matrix(0.2945 -0.9556 0.9556 0.2945 1962.4579 5040.5283)" class="st3" width="22.1" height="1"/>
		</g>
		<g>
			<g>
				<g>
					<path class="st3" d="M6638.4,1788c-10.5-74.3-17.8-149.1-21.6-224.1c-1.8-36.3-3.3-72.8-3-109.2c0.3-31.2,4.4-65,30.7-85.5
						c13.1-10.2,28.8-16.8,43.5-24.2c15.8-8,31.4-16.2,47-24.7c31.8-17.3,63.1-35.6,93.8-54.7c28.3-17.6,57.6-35.2,82.5-57.5
						c22.5-20.3,39.1-45.5,49.6-73.8c10.6-28.5,15.3-58.9,17.9-89c1.3-15.2,2-30.5,2.6-45.7c0.4-10.8,2.9-25.7-4.9-34.7
						c-9.4-10.9-24.7-4-35.3,0.8c-13.3,6-26.6,12.2-39.7,18.8c-25.5,12.8-50.5,27.4-72.2,46.1c-21.8,18.7-39.3,41.5-50.3,68.1
						c-13,31.6-18,65.8-31.1,97.4c-12.5,30.1-30.9,57.8-53.8,80.9c-20.8,21.1-46.4,37.3-64.9,60.7c-20.9,26.4-23.5,58.7-23.4,91.2
						c0.2,37.5,0.9,75.1,1.9,112.6c1,37.7,2.2,75.4,3.8,113c0.8,18.8,1.7,37.7,2.6,56.5c0.8,16.6,1.1,33.3,2.9,49.8
						c1.3,11.5,4.5,22.9,14.2,30.2c1.8,1.4,4.4-0.5,3.9-2.6c-25.9-119.1-15-241.8-25.3-362.5c-10.3-120.9-48.2-250.9,1.9-368
						c11.1-26,28.2-51.4,53.2-65.7c27.4-15.7,59.9-9.3,88.6-20.9c-1.2-0.6-2.4-1.2-3.7-1.8c8.7,70.4-22.5,143.8-79,186.7
						c-25.6,19.5-63.3,31.3-74.3,64.8c-6.4,19.5-4.3,41.8-4.1,62c0.3,22.9,1,45.7,2.1,68.6c2.6,51,7.5,101.9,14.5,152.4
						c0.5,3.3,5.4,2.2,5-1c-8.6-73.5-17.2-146.9-25.8-220.4c-8.6-73.2-18.5-147.2-10.9-221c7.2-69.3,32.7-137.4,21.1-207.8
						c-9.6-58.1-40.3-111.1-79.1-154.7c-49.3-55.3-111.7-96.6-173-137.1c-1.7-1.1-3.7,0.1-4,2c-6.4,48.7-11.8,97.6-16.1,146.6
						c-3.6,41-7.2,82.1-5.2,123.3c1.8,37.6,8.3,75.6,25,109.6c15.6,31.8,40,56.8,67.9,78c56.2,42.8,127.3,74.4,154.6,144.4
						c16.2,41.5,17,87.4,19.8,131.3c3.1,48.1,6.5,96.2,9.9,144.3c7,98.7,14.4,197.3,20.9,296c0.8,12,1.6,24.1,2.3,36.1
						c0.2,3.2,5.2,3.7,5.1,0.3c-1.7-160.9-20.2-321-43-480.2c-5.7-39.6-11.5-79.2-17.5-118.8c-4.8-31.8-10.1-63.6-19-94.6
						c-8.4-29.3-20.1-58-37.8-83c-17.6-25-41-44.3-67.5-59.2c-60.5-33.8-134.1-46.4-184.8-96.3c-1.3-1.3-3.7-1.1-4.3,0.9
						c-37.9,108.8,15.8,240.8,118,293.5c57.1,29.5,133.6,28.3,177.1,81.1c21.4,25.9,30.2,59.4,34.9,92c5.3,36.9,6.6,74.5,9.2,111.7
						c6.8,96.8,13.6,193.6,20.3,290.3c0.2,2.8,4,2.3,4.9,0.3c18.3-37.9,21.7-80.4,35.5-119.8c6.8-19.5,16.6-38.2,31.9-52.4
						c17.3-16,39.9-24.3,62.6-29.1c24.9-5.3,50.5-7.7,75.9-9.8c28.5-2.5,57.2-3.8,85.8-4c25.9-0.2,53,0.3,76.8,11.6
						c17.5,8.4,31.6,22.3,43.2,37.6c26,34,42.4,75.2,75.5,103.5c0.3-1.5,0.6-3.1,0.9-4.6c-76.1,17.8-155.6,19.7-232.5,5.7
						c-38.7-7.1-75.2-19.3-112.1-32.6c-31-11.2-64.6-17.8-93.2,3c-26.4,19.2-39.8,52.1-51,81.6c1.6,0.6,3.2,1.1,4.8,1.7
						c7.9-26.1-5.7-52.7-24.1-70.9c-21-20.9-48-34.8-67.4-57.5c-18.7-21.8-30.9-48.1-43.4-73.7c-12.5-25.4-26.2-49.8-43.5-72.3
						c-34.7-45.1-79.1-81.9-124.7-115.5c-48.8-35.9-98.7-71.9-151.8-101.3c-26.1-14.4-53.4-27-81.9-35.8
						c-13.9-4.3-28.1-7.6-42.4-9.8c-13.1-2-26.8-3.9-40-2.2c-10.9,1.4-21.6,6.1-27,16.1c-6,11.1-3.3,24.3,0.7,35.6
						c5,14.2,12.1,27.8,18.3,41.4c6.5,14,13,28,19.7,41.9c50.5,104.1,117.3,208.3,226.3,258.2c24.8,11.4,51.3,19.3,78.4,22.7
						c33,4.2,66.3,0.9,99.5,1.3c32.5,0.4,63.6,6.3,93.6,18.8c28.5,11.9,55,28.1,80.5,45.5c12.6,8.6,24.9,17.5,37.3,26.4
						c-0.3-1-0.7-2-1-3c-10.6,23.3-11.1,49.7-1.7,73.5c1.5-0.8,3.1-1.5,4.6-2.3c-27.4-42.2-76.4-63.7-125.7-65.2
						c-54.2-1.6-104.4,22-143.6,58.4c-20.8,19.2-38.5,41.7-53.5,65.6c-7.2,11.6-13.8,23.5-19.9,35.7c-5,10.1-10.4,24.1,1.7,31.4
						c8.5,5.1,20.1,3.5,29.1,0.8c14.6-4.2,28.9-9.9,42.7-16.1c28.2-12.7,54.7-29.1,78.8-48.6c28-22.8,51.5-51.2,82-70.9
						c28.8-18.6,68.3-28.5,99.4-9.3c2.8,1.7,5.7-2.5,2.9-4.3c-22.9-14.2-50.8-13.7-75.6-5.2c-27.2,9.3-49.3,28.1-69.9,47.5
						c-22,20.7-43.6,41.3-68.8,58.1c-24.4,16.2-50.7,29.4-78.3,39.2c-11,3.9-25.6,10.2-37.3,5.4c-16.4-6.6,0.2-30.3,5.5-40
						c13-23.9,28.4-46.7,46.6-67c35-39,81.5-69.3,134.5-74.8c54.5-5.7,114.2,14,145,61.5c1.8,2.8,5.8,0.8,4.6-2.3
						c-8.9-22.5-8-47.5,2-69.5c0.5-1-0.1-2.3-1-3c-46.7-33.8-95.3-68.7-151.8-83.8c-60.2-16-122.9,0.4-183.5-13
						c-113-25-193.5-118.1-247.6-214.8c-14.7-26.2-28-53.2-40.8-80.4c-6.2-13.3-12.3-26.6-18.4-39.9c-6-13.3-14.3-27.9-13.2-43
						c2.3-32.7,48.2-24.5,69.4-20.8c29.6,5.1,58.1,15,85.3,27.6c53.8,24.9,102.4,59.7,150.7,93.8c45.6,32.2,90.9,65.6,129.4,106.3
						c19,20.1,36.3,42,50.5,65.8c14.1,23.7,24.8,49.3,38,73.6c12.6,23.1,27.9,43.7,48.5,60.3c22.7,18.4,49.6,33.6,63.1,60.7
						c6.4,12.9,9.1,27.2,4.9,41.2c-1,3.2,3.7,4.8,4.8,1.7c10.2-26.8,22-55.8,44.2-75.1c12.4-10.8,27.8-16.9,44.3-17.1
						c19.4-0.1,38.1,6.6,56,13.3c69.6,26,141.9,40.5,216.3,39.6c41.8-0.5,83.5-5.5,124.2-15.1c2.3-0.5,2.5-3.2,0.9-4.6
						c-31.3-26.7-47.6-65.8-71.5-98.5c-11-15.1-24.1-29.2-40.3-38.8c-21.5-12.7-46.4-15.7-70.9-16.2c-28.2-0.5-56.6,0.7-84.8,2.7
						c-27.2,1.9-54.5,4.3-81.4,8.9c-22.4,3.8-45,9.8-64.1,22.4c-17,11.2-29.7,27.2-38.5,45.4c-21.4,44.1-22.1,95-43.5,139.2
						c1.6,0.1,3.3,0.2,4.9,0.3c-6-85.5-12-171.1-18-256.6c-2.8-39.8-4.9-79.8-8.6-119.6c-2.9-31.4-7.7-63.5-21.4-92.2
						c-13.8-28.9-36.7-50.1-65.4-63.8c-29.9-14.3-62.8-20.9-94.1-31.3c-28.7-9.5-55.1-23.3-78.1-43c-22.3-19.1-40.9-42.5-55-68.2
						c-31.7-57.9-41.1-128.3-19.2-191.1c-1.4,0.3-2.9,0.6-4.3,0.9c43.9,43.2,105,59,159.6,84c28.2,12.9,55.5,28.9,76.8,51.8
						c21.2,22.8,35.8,50.8,46.1,80.1c10.6,30.1,16.9,61.6,22,93.1c6.2,37.6,11.5,75.3,16.9,112.9c11.5,78.8,22.1,157.7,30.4,236.9
						c9.3,89.5,15.5,179.4,16.4,269.5c1.7,0.1,3.4,0.2,5.1,0.3c-6.2-97.2-13.3-194.2-20.3-291.3c-3.6-49.7-7.1-99.4-10.4-149.1
						c-2.9-44-3.3-89.1-12-132.4c-7.5-37.5-23.9-71-51.1-98.1c-24.4-24.3-53.6-42.8-82-61.9c-29.2-19.7-58.7-40.4-80.5-68.6
						c-24-31-36.2-69-41.3-107.5c-5.2-39.7-3.5-80-0.4-119.8c3.8-48.6,8.7-97.1,14.5-145.4c1.4-11.9,2.9-23.8,4.5-35.6
						c-1.3,0.7-2.7,1.3-4,2c102.7,68,218.8,146.9,247.4,275.3c15.4,69.1-7.4,136.4-16.8,204.5c-9.8,71.3-1.8,143.4,6.5,214.5
						c9.5,81.1,19,162.2,28.5,243.4c1.7-0.3,3.3-0.7,5-1c-6.4-45.9-11.1-92.1-13.8-138.4c-1.3-22.8-2.2-45.7-2.6-68.6
						c-0.4-21.3-2.4-44.2,1.5-65.3c7.2-38.4,49-50.6,76.4-71.8c26.6-20.7,47.6-48.2,61.6-78.8c15.9-34.8,22.2-73.6,17.5-111.6
						c-0.2-1.8-2.3-2.3-3.7-1.8c-26.2,10.6-55.9,5.4-81.8,17.4c-22.2,10.2-39.3,29.3-51.5,50.1c-30,51.1-37.5,113.6-36.2,171.7
						c1.4,63.2,12.6,125.5,19.8,188.1c7.1,62.6,7.9,125.5,9.4,188.4c1.6,69.3,4.4,139,19.2,207c1.3-0.9,2.6-1.8,3.9-2.6
						c-12.3-9.3-12.2-26.9-13-40.8c-1-18.4-2-36.8-2.9-55.2c-1.7-35.9-3.2-71.9-4.3-107.9c-1.1-36-2-71.9-2.5-107.9
						c-0.3-18-0.7-36.1-0.5-54.1c0.1-17.3,1.1-34.9,6.6-51.4c9.8-29.5,34.5-48.9,57.3-68.2c22.8-19.3,42.9-40.9,58.7-66.3
						c17-27.4,27-57,35.4-87.8c8.4-30.5,17.6-60.3,37.4-85.6c35.1-44.8,89.9-70.6,140.8-93c7.5-3.3,19-8.1,25.6-0.4
						c4.9,5.7,4.1,14.6,3.9,21.5c-0.5,14.9-1.1,29.7-2.1,44.5c-2.1,30.2-6,60.6-15.4,89.5c-9.6,29.5-25.2,56.2-47.9,77.4
						c-24,22.5-52.7,39.8-80.5,57.2c-29.6,18.6-59.8,36.3-90.4,53.2c-15.5,8.5-31.1,16.8-46.9,24.9c-14.3,7.3-29.2,13.9-42.9,22.4
						c-11.7,7.3-21.9,16.6-28.6,28.8c-6.4,11.6-9.7,24.6-11.5,37.7c-2,14.7-1.9,29.6-1.7,44.4c0.2,18.2,0.7,36.4,1.3,54.5
						c2.4,70.8,7.9,141.5,16.4,211.9c2.1,17.6,4.4,35.3,6.9,52.8C6633.8,1792.3,6638.8,1791.3,6638.4,1788L6638.4,1788z"/>
				</g>
				<g>
					<path class="st3" d="M6601.7,1429c6.9-77.6,79-120.4,135.6-161.7c32-23.3,60-50.5,84.9-81.3c25.4-31.5,47.7-65.4,69.8-99.2
						c26.9-41.3,53-83,78.3-125.2c1.7-2.8-2.6-5.7-4.3-2.9c-22.8,37.9-46.2,75.5-70.2,112.7c-22.4,34.6-44.8,69.3-70.1,101.9
						c-25,32.2-53.1,61.3-85.8,85.8c-30.7,22.9-63.8,43-91.2,70c-27.4,27-48.7,60.6-52.2,99.6
						C6596.3,1432,6601.5,1432.3,6601.7,1429L6601.7,1429z"/>
				</g>
				<g>
					<path class="st3" d="M6743.6,974.5c-17.5,16.5-34.9,32.9-52.4,49.5c-15.5,14.7-30.5,29.9-42.9,47.3
						c-23.5,32.9-38.1,71.2-49,109.8c-6.3,22.4-11.5,45.2-16.6,68c-0.7,3.2,4.1,4.9,4.8,1.7c8.7-39.1,17.7-78.5,32.6-115.8
						c7.5-18.7,16.4-36.8,27.6-53.7c11.9-18.1,26.6-33.8,42.1-48.8c18.9-18.2,38.1-36.1,57.2-54.1
						C6749.4,976.1,6746,972.3,6743.6,974.5L6743.6,974.5z"/>
				</g>
				<g>
					<path class="st3" d="M6348,572.7c30.9,81.9,76.6,156.9,112.3,236.7c36.2,80.9,61.6,166.2,82.9,252.1
						c11.9,48.1,22.6,96.6,33.3,145c0.7,3.2,5.7,2.2,5-1c-19.1-86.9-38.3-173.8-64.6-258.8c-12.9-41.7-27.6-82.8-44.7-123
						c-17.2-40.3-37.2-79.2-57.1-118.2c-22.6-44.2-44.9-88.6-62.4-135.1C6351.5,567.3,6346.9,569.6,6348,572.7L6348,572.7z"/>
				</g>
				<g>
					<path class="st3" d="M6255.7,853c21.7,64.3,57.7,123.5,105.1,172.1c25.7,26.4,54.9,48.6,84.6,70.3
						c29.3,21.4,59.5,42.4,85.2,68.2c24.5,24.6,41.6,53.8,52,86.9c1,3.1,6,2.1,5-1c-8.8-28.1-22.1-54.2-41.3-76.6
						c-22-25.6-49.5-46.2-76.6-66.1c-30.9-22.7-62.5-44.7-90.6-70.9c-25.2-23.6-47.8-50.2-66.9-79c-21.6-32.5-39-67.9-51.5-104.9
						C6259.7,848.9,6254.7,849.9,6255.7,853L6255.7,853z"/>
				</g>
				<g>
					<path class="st3" d="M5978.6,1183.1c24.6,4.1,45.3,19.3,64.2,34.6c20.1,16.3,39.6,33.4,58.7,51
						c38.3,35.3,74.7,72.6,110.8,110.2c17.8,18.5,35.3,37.1,53.3,55.5c16.8,17.2,34.4,33.9,54.9,46.6
						c41.7,25.9,91.8,33.3,133.8,58.7c24.8,15,47.1,34,69.8,51.9c24.4,19.3,48.7,38.5,73.1,57.8c2.6,2.1,5.4-2.2,2.9-4.3
						c-21.7-17.2-43.4-34.3-65.2-51.5c-20.9-16.5-41.5-33.8-63.4-48.9c-20.4-14.1-42.5-24.5-65.7-33.1
						c-23.2-8.6-47.1-16.1-69.2-27.4c-22.4-11.6-41.6-27.8-59.4-45.5c-18.3-18.1-35.8-37-53.6-55.6
						c-36.3-37.8-72.8-75.5-111.1-111.3c-21.2-19.8-42.9-39-65.3-57.3c-20.2-16.4-41.9-32.2-68.1-36.6
						C5975.6,1177.4,5975.3,1182.6,5978.6,1183.1L5978.6,1183.1z"/>
				</g>
				<g>
					<path class="st3" d="M6628.3,1686.2c7.3-65.9,58.5-124.3,123.2-139.5c41.1-9.6,83.5-2.7,123.8,7.3
						c20.5,5.1,40.8,11.1,61.3,16.5c19.8,5.2,40,8.9,59.8,14.2c10.9,2.9,21.7,6.6,31.5,12.2c8.6,4.9,16.4,11,24.1,17.1
						c15.2,12.1,29.9,25.6,47.7,33.9c3,1.4,4.6-3.5,1.7-4.8c-17-8-31.3-21.2-45.8-32.8c-14.7-11.8-29.7-21.7-47.8-27.6
						c-20.2-6.6-41.4-9.8-62-15.1c-21.1-5.4-42-11.6-63.1-17c-40.6-10.4-83-18.3-124.8-10.5c-33.3,6.3-63.8,23.3-87.4,47.6
						c-25.9,26.6-43.2,61.2-47.3,98.2C6622.8,1689.1,6627.9,1689.5,6628.3,1686.2L6628.3,1686.2z"/>
				</g>
				<g>
					<path class="st3" d="M6604.6,1709.6c-38.9-27.8-89.5-17.1-128.8,3.7c-21.6,11.5-41.9,25.6-61.6,40
						c-20.3,14.8-40,30.6-58.9,47.2c-21.2,18.6-41.4,38.4-60.6,59.1c-2.2,2.4,1.1,6.3,3.4,3.9c32.6-35.1,68.1-67.4,106.2-96.4
						c19.2-14.6,39-28.7,59.7-41.2c20.1-12.1,41.8-22.6,65.1-26.5c25-4.2,51.7-0.6,72.7,14.4
						C6604.5,1715.7,6607.3,1711.5,6604.6,1709.6L6604.6,1709.6z"/>
				</g>
			</g>
			
				<rect x="6628.1" y="1767.4" transform="matrix(0.9288 -0.3706 0.3706 0.9288 -187.1298 2583.0442)" class="st3" width="1" height="22.1"/>
		</g>
		<g>
			<g>
				<g>
					<path class="st3" d="M5578.3,1350.1c3.5-75,3.8-150.1,0.5-225.1c-1.6-36.3-3.5-72.8-7.2-109c-3.2-31.1-10.4-64.3-38.6-82.2
						c-14-8.9-30.2-14-45.6-20.1c-16.5-6.5-32.8-13.2-49.1-20.2c-33.3-14.3-66.2-29.5-98.5-45.7c-29.8-14.9-60.7-29.6-87.5-49.6
						c-24.3-18.1-43.2-41.6-56.3-68.9c-13.2-27.4-20.8-57.2-26.2-87c-2.7-15-4.9-30.1-6.8-45.3c-1.4-10.7-5.3-25.4,1.6-35
						c8.3-11.7,24.2-6.3,35.2-2.5c13.8,4.8,27.7,9.6,41.3,15c26.6,10.4,52.8,22.6,76.2,39.1c23.4,16.6,43,37.6,56.4,63.1
						c15.9,30.2,24.1,63.9,40.1,94.1c15.3,28.8,36.2,54.6,61.1,75.6c22.7,19,49.7,32.8,70.3,54.4c23.2,24.4,28.9,56.3,31.8,88.7
						c3.3,37.4,6.1,74.9,8.6,112.3c2.6,37.6,4.8,75.2,6.7,112.9c1,18.8,1.8,37.7,2.6,56.5c0.7,16.6,2,33.3,1.7,49.9
						c-0.2,11.6-2.4,23.3-11.3,31.4c-1.7,1.5-4.4-0.1-4.2-2.3c14.6-121-7.6-242.2-8.7-363.3c-1-121.4,24.5-254.3-36.3-366.2
						c-13.5-24.8-32.8-48.6-59.1-60.5c-28.8-13-60.5-3.7-90.1-12.5c1.2-0.7,2.3-1.4,3.5-2.1c-2.1,70.9,35.9,141,96.1,178.5
						c27.3,17,66,25.2,80,57.6c8.2,18.8,8.2,41.2,9.8,61.4c1.9,22.8,3.3,45.6,4.3,68.5c2.2,51,2.1,102.1-0.2,153.1
						c-0.2,3.3-5.2,2.7-5.1-0.6c1.7-73.9,3.4-147.9,5.1-221.8c1.7-73.7,4.7-148.3-9.8-221c-13.6-68.3-45.4-133.8-40.4-204.9
						c4.1-58.8,29.7-114.4,64.3-161.4c43.9-59.7,102.2-106.6,159.5-152.7c1.6-1.3,3.7-0.3,4.2,1.6c10.9,47.9,20.8,96.1,29.7,144.4
						c7.4,40.4,14.9,81.1,16.7,122.3c1.7,37.6-1.2,76.1-14.7,111.5c-12.6,33.1-34.5,60.3-60.3,84c-52,47.9-119.8,85.9-140.4,158.2
						c-12.2,42.9-8.8,88.6-7.5,132.6c1.4,48.2,2.6,96.4,3.7,144.6c2.2,98.9,4.1,197.8,6.9,296.7c0.3,12.1,0.7,24.1,1,36.2
						c0.1,3.2-4.8,4.2-5.1,0.8c-13.4-160.4-9.9-321.5-2.1-482.1c1.9-40,4.1-80,6.4-119.9c1.8-32.1,4.1-64.3,10.1-95.9
						c5.7-30,14.6-59.6,29.9-86.2c15.2-26.5,36.6-48,61.7-65.2c57-39.3,129.1-58.7,175-113.1c1.2-1.4,3.6-1.4,4.4,0.4
						c47.9,104.8,6.8,241.2-90.1,303.3c-54.1,34.7-130.4,40.7-168.8,97.3c-18.8,27.8-24.5,62-26.2,94.9
						c-1.8,37.3,0.4,74.8,1.3,112.1c2.3,97,4.6,194,6.9,291c0.1,2.9-3.8,2.6-4.9,0.8c-21.8-36-29.2-78-46.6-116
						c-8.6-18.8-20.1-36.5-36.7-49.1c-18.8-14.3-42-20.4-65.1-23.1c-25.3-3-51-2.9-76.4-2.7c-28.6,0.2-57.3,1.6-85.8,4
						c-25.8,2.2-52.7,5.2-75.4,18.7c-16.7,10-29.4,25.1-39.5,41.4c-22.7,36.3-35.2,78.9-65.5,110.1c-0.4-1.5-0.9-3-1.3-4.5
						c77.5,10.6,156.8,5.1,232.1-16.1c37.8-10.6,73.1-26.2,108.6-42.9c29.8-14.1,62.7-23.8,93.1-5.7c28.1,16.7,44.5,48.1,58.4,76.4
						c-1.6,0.7-3.1,1.4-4.7,2.1c-10.3-25.3,0.8-53,17.3-72.8c19-22.8,44.6-39.1,61.8-63.6c16.5-23.5,26.2-50.8,36.3-77.4
						c10-26.5,21.4-52,36.5-76c30.4-48.2,71.1-88.9,113.4-126.6c45.2-40.3,91.5-80.8,141.7-115c24.6-16.8,50.6-31.9,78.2-43.3
						c13.4-5.5,27.3-10.2,41.3-13.7c12.8-3.2,26.4-6.4,39.7-5.9c11,0.4,22,4.1,28.4,13.6c7,10.5,5.5,23.9,2.6,35.5
						c-3.7,14.6-9.4,28.8-14.4,42.9c-5.1,14.6-10.3,29.1-15.7,43.5c-40.6,108.4-97.3,218.3-201.2,278.2c-23.7,13.6-49.2,24-75.9,30
						c-32.5,7.3-65.9,7.1-98.9,10.6c-32.3,3.4-62.7,12.3-91.4,27.5c-27.3,14.5-52.1,33.2-75.9,52.8c-11.7,9.7-23.2,19.7-34.6,29.8
						c0.2-1,0.5-2,0.7-3c12.7,22.2,15.6,48.5,8.6,73c-1.6-0.6-3.2-1.2-4.8-1.9c23.3-44.5,70.2-70.6,119-76.6
						c53.8-6.6,106,12.2,148.5,44.8c22.5,17.2,42.2,37.9,59.4,60.3c8.3,10.8,16,22.1,23.1,33.7c5.9,9.6,12.6,23,1.3,31.4
						c-8,5.9-19.7,5.3-28.9,3.6c-14.9-2.9-29.7-7.1-44-12c-29.3-10-57.2-23.9-83-41.1c-30-20-56-46.2-88.2-62.9
						c-30.5-15.8-70.7-22-99.8,0c-2.6,2-5.9-2-3.3-4c21.5-16.3,49.3-18.4,74.8-12.2c27.9,6.7,51.7,23.4,74.1,40.8
						c23.9,18.5,47.3,37,73.9,51.4c25.8,13.9,53.3,24.6,81.6,31.7c11.3,2.9,26.4,7.7,37.6,1.9c15.7-8.1-3-30.2-9.2-39.3
						c-15.2-22.6-32.7-43.9-52.7-62.4c-38.5-35.5-87.6-61.4-140.9-61.9c-54.8-0.5-112.4,24.7-138.6,74.8c-1.5,2.9-5.7,1.4-4.8-1.9
						c6.7-23.3,3.6-48-8.4-69c-0.6-1-0.1-2.3,0.7-3c43.3-38,88.5-77.3,143.3-97.6c58.5-21.6,122.4-11,181.5-30.1
						c110.1-35.5,181.6-135.7,226.5-237c12.2-27.5,22.9-55.6,33.1-83.8c5-13.8,9.8-27.6,14.6-41.5c4.8-13.8,11.6-29.2,9.2-44.1
						c-5.4-32.4-50.2-19.9-71.1-14.3c-28.9,7.8-56.5,20.4-82.3,35.5c-51.2,29.8-96.4,69-141.2,107.4
						c-42.4,36.3-84.4,73.8-118.9,117.9c-17.1,21.8-32.2,45.2-44.1,70.2c-11.9,25-20,51.4-31,76.8c-10.4,24.2-23.7,46.1-42.6,64.6
						c-20.9,20.4-46.2,38.1-57.2,66.3c-5.2,13.4-6.5,27.9-1,41.5c1.2,3.1-3.2,5.1-4.7,2.1c-12.6-25.8-27.1-53.5-51-70.6
						c-13.4-9.6-29.3-14.3-45.7-12.9c-19.3,1.7-37.3,10.1-54.5,18.5c-66.8,32.4-137.5,53.6-211.7,59.7c-41.7,3.4-83.6,2.3-125.1-3.4
						c-2.4-0.3-2.8-3-1.3-4.5c28.7-29.5,41.3-70,61.9-104.8c9.6-16.1,21.2-31.4,36.5-42.4c20.2-14.6,44.8-20,69.1-22.7
						c28.1-3.2,56.4-4.6,84.6-5.3c27.2-0.6,54.7-0.8,81.8,1.2c22.6,1.7,45.7,5.6,65.9,16.3c18,9.6,32.1,24.3,42.6,41.6
						c25.4,41.9,30.9,92.5,56.3,134.5c-1.6,0.3-3.3,0.5-4.9,0.8c-2-85.7-4-171.5-6.1-257.2c-0.9-39.9-2.5-79.9-2.6-119.9
						c-0.1-31.5,1.8-63.9,12.7-93.8c11-30.1,31.8-53.3,59.1-69.7c28.5-17,60.5-26.6,90.8-39.9c27.7-12.2,52.7-28.4,73.8-50.1
						c20.4-21.1,36.7-46.1,48.3-73c26.2-60.6,28.9-131.5,1.3-192.1c1.5,0.1,2.9,0.3,4.4,0.4c-39.7,47.1-99.1,68.6-151.1,98.5
						c-26.9,15.5-52.5,33.9-71.6,58.8c-19,24.7-30.9,54-38.4,84c-7.7,31-11.1,62.9-13.3,94.8c-2.6,38-4.4,76-6.3,114
						c-4.1,79.5-7.3,159.1-8.1,238.7c-0.9,90,1.3,180.1,8.8,269.8c-1.7,0.3-3.4,0.5-5.1,0.8c-2.9-97.3-4.9-194.6-7-292
						c-1.1-49.8-2.2-99.6-3.6-149.4c-1.2-44.1-5-89-0.4-133c4-38.1,17.2-72.9,41.7-102.4c22-26.4,49.4-47.6,75.9-69.2
						c27.3-22.3,54.7-45.8,73.7-75.8c21-33.1,29.6-72.1,31.1-110.9c1.5-40-4-80-10.8-119.3c-8.3-48-17.7-95.8-28-143.4
						c-2.5-11.7-5.1-23.4-7.8-35.1c1.4,0.5,2.8,1.1,4.2,1.6c-95.9,77.3-204.1,166.7-220.6,297.3c-8.9,70.2,20.1,135.1,35.8,202
						c16.4,70.1,15.2,142.6,13.6,214.1c-1.9,81.7-3.8,163.3-5.7,245c-1.7-0.2-3.4-0.4-5.1-0.6c2.1-46.3,2.4-92.7,0.8-139
						c-0.8-22.9-2.1-45.7-3.8-68.5c-1.6-21.3-1.7-44.3-7.6-64.9c-10.8-37.6-53.5-45.8-82.7-64.4c-28.4-18.1-51.9-43.5-68.7-72.7
						c-19.1-33.2-29-71.2-27.9-109.5c0.1-1.8,2-2.5,3.5-2.1c27.1,8.1,56.1,0.2,83,9.6c23,8.1,41.9,25.5,55.9,45.1
						c34.6,48.1,47.9,109.6,52.1,167.6c4.5,63-0.8,126.1-2.1,189.2c-1.3,63,3.8,125.7,8.2,188.4c4.9,69.1,8.6,138.8,0.2,207.9
						c-1.4-0.8-2.8-1.5-4.2-2.3c11.4-10.4,9.6-27.9,9.1-41.8c-0.7-18.4-1.4-36.8-2.3-55.2c-1.6-35.9-3.6-71.9-5.8-107.8
						c-2.2-35.9-4.7-71.8-7.6-107.7c-1.4-18-2.7-36-4.5-53.9c-1.7-17.2-4.3-34.6-11.3-50.5c-12.5-28.4-38.9-45.4-63.4-62.6
						c-24.5-17.1-46.5-36.7-64.6-60.6c-19.4-25.6-32.2-54.2-43.5-84.2c-11.2-29.6-23.2-58.4-45.3-81.7
						c-39.1-41.3-96.1-61.9-148.9-79.4c-7.8-2.6-19.6-6.2-25.5,2c-4.3,6.1-2.8,14.9-1.9,21.8c1.8,14.7,3.8,29.5,6.2,44.1
						c4.9,29.9,11.7,59.8,23.7,87.7c12.3,28.4,30.4,53.5,54.9,72.6c26,20.2,56.2,34.7,85.5,49.4c31.2,15.7,62.9,30.6,95,44.5
						c16.2,7,32.6,13.9,49,20.4c14.9,6,30.4,11.1,44.8,18.3c12.4,6.2,23.3,14.5,31.2,26c7.5,11,12,23.6,15,36.5
						c3.3,14.5,4.6,29.3,5.8,44c1.5,18.1,2.7,36.3,3.8,54.4c4.2,70.7,5.3,141.7,3.5,212.5c-0.5,17.8-1.1,35.5-2,53.3
						C5583.2,1353.9,5578.1,1353.4,5578.3,1350.1L5578.3,1350.1z"/>
				</g>
				<g>
					<path class="st3" d="M5581.2,989.2c-14.2-76.6-89.9-112.5-150.1-148.3c-34-20.2-64.5-44.6-92.1-73
						c-28.2-29-53.6-60.6-78.7-92.3c-30.6-38.6-60.5-77.7-89.7-117.4c-2-2.7,2-5.9,4-3.3c26.2,35.7,53,70.9,80.4,105.6
						c25.5,32.4,51.1,64.8,79.3,94.9c27.9,29.8,58.6,56.1,93.5,77.4c32.7,19.9,67.5,36.9,97.4,61.2c29.8,24.3,54.1,55.8,61.2,94.3
						C5586.9,991.6,5581.8,992.4,5581.2,989.2L5581.2,989.2z"/>
				</g>
				<g>
					<path class="st3" d="M5397.5,550c18.9,14.8,37.9,29.5,56.7,44.3c16.8,13.2,33.2,26.9,47.2,43.1c26.5,30.6,44.6,67.3,59.1,104.8
						c8.4,21.8,15.7,43.9,22.9,66.1c1,3.1-3.7,5.3-4.7,2.1c-12.4-38.1-24.9-76.5-43.2-112.3c-9.2-17.9-19.8-35.2-32.5-50.9
						c-13.6-16.9-29.6-31.2-46.5-44.6c-20.5-16.3-41.3-32.3-62-48.5C5391.9,552.1,5394.9,547.9,5397.5,550L5397.5,550z"/>
				</g>
				<g>
					<path class="st3" d="M5753.8,112.9c-23.1,84.4-61.6,163.4-89.7,246.1c-28.5,84-45.8,171.2-59,258.8
						c-7.4,49-13.5,98.3-19.6,147.5c-0.4,3.3-5.5,2.7-5.1-0.6c10.9-88.3,21.9-176.7,40.2-263.8c9-42.7,19.7-85,33-126.6
						c13.3-41.7,29.7-82.3,45.8-123c18.3-46.1,36.4-92.4,49.5-140.3C5749.9,107.8,5754.7,109.7,5753.8,112.9L5753.8,112.9z"/>
				</g>
				<g>
					<path class="st3" d="M5871.9,383.4c-15.6,66-45.9,128.3-88.6,181.1c-23.1,28.6-50.2,53.5-77.7,77.9
						c-27.2,24-55.3,47.7-78.4,75.8c-22.1,26.8-36.4,57.5-43.6,91.4c-0.7,3.2-5.8,2.7-5.1-0.6c6.1-28.8,16.9-56,34-80.1
						c19.6-27.5,45-50.6,70-73c28.6-25.5,58-50.3,83.5-79.1c22.9-25.9,42.9-54.4,59.2-84.9c18.5-34.4,32.5-71.2,41.5-109.2
						C5867.5,379.6,5872.7,380.2,5871.9,383.4L5871.9,383.4z"/>
				</g>
				<g>
					<path class="st3" d="M6178.7,686.2c-24.1,6.4-43.3,23.4-60.7,40.5c-18.5,18.1-36.3,37-53.7,56.3
						c-34.8,38.8-67.6,79.3-100.1,120.1c-15.9,20.1-31.7,40.3-47.8,60.2c-15.1,18.7-31.1,37-50.3,51.5
						c-39.1,29.7-88.3,41.7-127.7,70.9c-23.3,17.3-43.7,38.3-64.6,58.2c-22.5,21.5-44.9,42.9-67.4,64.4c-2.4,2.3-5.6-1.7-3.3-4
						c20-19.1,40-38.3,60.1-57.4c19.3-18.4,38.1-37.5,58.6-54.6c19-16,40-28.3,62.3-39.1c22.3-10.7,45.4-20.4,66.3-33.8
						c21.2-13.6,38.8-31.6,54.9-50.8c16.5-19.7,32.2-40.2,48.2-60.3c32.6-41.1,65.4-82,100.2-121.2c19.2-21.7,39-42.8,59.7-63.1
						c18.6-18.3,38.7-36,64.4-42.8C6181.1,680.2,6181.9,685.3,6178.7,686.2L6178.7,686.2z"/>
				</g>
				<g>
					<path class="st3" d="M5578.8,1247.7c-13.4-64.9-69.9-118.3-135.7-127.4c-41.8-5.7-83.4,5.1-122.6,18.9
						c-20,7-39.6,14.8-59.5,22.1c-19.2,7.1-39,12.6-58.2,19.7c-10.5,3.9-20.9,8.6-30.2,15.1c-8.1,5.6-15.3,12.4-22.4,19.3
						c-14,13.5-27.4,28.3-44.3,38.2c-2.8,1.7-4.9-3-2.1-4.7c16.2-9.6,29.2-24,42.6-37c13.6-13.1,27.6-24.4,45-31.9
						c19.5-8.4,40.3-13.7,60.3-20.8c20.5-7.3,40.8-15.4,61.3-22.8c39.4-14.1,81-26,123.2-22.1c33.7,3.1,65.7,17.3,91.4,39.2
						c28.3,24.1,48.7,56.9,56.2,93.3C5584.5,1250.2,5579.5,1251,5578.8,1247.7L5578.8,1247.7z"/>
				</g>
				<g>
					<path class="st3" d="M5604.5,1268.8c36.1-31.3,87.5-25.4,128.6-8.3c22.6,9.4,44.1,21.6,65.1,34.1c21.6,12.9,42.7,26.7,63,41.5
						c22.9,16.6,44.8,34.3,65.9,53.1c2.4,2.2-0.5,6.4-3,4.2c-35.7-31.9-74.1-60.7-114.8-86c-20.5-12.8-41.5-24.9-63.3-35.4
						c-21.1-10.2-43.7-18.6-67.3-20.3c-25.3-1.8-51.5,4.2-71,21.1C5605.3,1274.9,5602,1270.9,5604.5,1268.8L5604.5,1268.8z"/>
				</g>
			</g>
			<polygon class="st3" points="5583.5,1350.1 5589.8,1328.9 5590.8,1329.2 5584.5,1350.4 			"/>
		</g>
		<g>
			<g>
				<g>
					<path class="st3" d="M777.6,1143.1c-48.3-57.5-99.1-112.8-152.3-165.7c-25.8-25.6-52-51.1-79.2-75.2
						c-23.4-20.7-51.3-40.2-84.1-34.3c-16.3,2.9-31.7,10.2-47.1,16.2c-16.5,6.4-33.1,12.5-49.8,18.5
						c-34.1,12.1-68.6,23.2-103.4,33.3c-32,9.3-64.7,19.4-97.9,22.9c-30.2,3.2-59.9-1.3-88.1-12.4c-28.3-11.2-54-27.9-78.2-46.1
						c-12.2-9.2-24-18.8-35.7-28.6c-8.3-6.9-21.1-15.1-22.6-26.8c-1.8-14.2,13.5-21,24.2-25.7c13.4-5.9,26.9-11.7,40.5-17
						c26.6-10.4,54.1-19.3,82.5-23c28.5-3.7,57.1-1.6,84.3,8c32.2,11.4,61,30.6,93.3,41.9c30.7,10.8,63.6,15.6,96.2,14
						c29.6-1.4,58.8-9.6,88.5-7.7c33.6,2.1,59.4,21.7,83.5,43.6c27.8,25.2,55.3,50.9,82.5,76.7c27.4,25.9,54.6,52,81.5,78.4
						c13.5,13.2,26.9,26.4,40.3,39.7c11.8,11.7,24.1,23.1,35.1,35.5c7.7,8.6,14.1,18.7,13,30.7c-0.2,2.3-3.3,2.9-4.6,1.2
						c-71.4-98.8-169.9-172.7-252.9-261c-83.1-88.5-154.5-203.5-275.1-244.4c-26.8-9.1-57.1-13.4-84.4-4.3
						c-30,9.9-46.9,38.4-74.7,52c0.4-1.3,0.8-2.6,1.1-3.9c46.6,53.5,122,79.3,191.7,65.9c31.6-6,65.6-26.2,97.8-12
						c18.8,8.3,34,24.8,48.9,38.4c16.9,15.5,33.4,31.3,49.6,47.4c36.2,36,70.8,73.6,103.7,112.6c2.1,2.5-2,5.5-4.1,3
						c-48.9-55.5-97.8-110.9-146.7-166.4c-48.7-55.3-97.2-112.2-157.2-155.7c-56.4-41-124.1-67.5-168.7-123.1
						c-36.9-46-55.8-104.2-62.3-162.2c-8.2-73.6,2.8-147.6,13.6-220.4c0.3-2,2.5-2.7,4.1-1.7c40.5,27.8,80.5,56.5,119.8,85.9
						c32.9,24.7,65.9,49.5,95.2,78.5c26.8,26.5,50.7,56.7,64.9,91.9c13.2,32.8,15.6,67.7,12.7,102.6c-5.7,70.4-29.7,144.4,4.2,211.5
						c20.1,39.8,53.7,71,84.4,102.5c33.7,34.5,67.3,69.1,100.8,103.8c68.7,71.1,137.2,142.5,206.3,213.3
						c8.4,8.6,16.9,17.2,25.3,25.9c2.2,2.3-0.7,6.3-3.2,4c-118.7-108.8-225.4-229.5-328.6-352.7c-25.7-30.7-51.3-61.5-76.7-92.4
						c-20.4-24.8-40.6-50-57.7-77.3c-16.2-25.9-29.7-53.7-36.5-83.6c-6.8-29.8-5.6-60.1,1.1-89.8c15.2-67.6,55-130.7,51.8-201.9
						c-0.1-1.9,1.7-3.5,3.5-2.7c106.3,44.5,168.6,172.6,139.6,283.9c-16.2,62.2-68.1,118.3-58,185.9c5,33.2,24,62.2,45.1,87.4
						c23.9,28.6,51,54.7,77,81.5c67.5,69.7,135,139.4,202.5,209.1c2,2.1-1,4.5-3.1,3.9c-40.4-11.7-74.4-37.6-112.9-53.6
						c-19.1-7.9-39.5-13.2-60.3-11.2c-23.5,2.2-44.7,13.5-63.5,27.1c-20.6,15-39.5,32.5-58,49.9c-20.9,19.6-41,40-60.3,61.2
						c-17.4,19.1-35.2,39.6-42.6,64.9c-5.5,18.6-4.5,38.4-0.9,57.3c8,42,27.7,81.8,26.6,125.4c-1.4-0.8-2.7-1.6-4.1-2.4
						c64.1-44.7,118.6-102.6,159.6-169.3c20.6-33.5,35.9-68.9,50.6-105.2c12.4-30.5,29.9-60,64.5-67.3c31.9-6.8,65.4,5.1,94.8,16.5
						c-0.7,1.6-1.3,3.2-2,4.7c-24.7-11.6-35.4-39.4-36.7-65.3c-1.5-29.6,6.2-59,2.3-88.6c-3.8-28.5-15.2-55.1-25.8-81.5
						c-10.6-26.3-19.6-52.7-24.7-80.6c-10.4-56-8.1-113.5-2.6-170c5.9-60.3,12.4-121.5,26-180.6c6.7-29.1,15.5-57.8,28.1-84.9
						c6.1-13.2,13.1-26,21.1-38.1c7.2-11.1,15-22.6,25.1-31.3c8.3-7.2,19-12,30-9.3c12.2,3,20.3,13.8,26,24.3
						c7.2,13.2,12.6,27.5,18.6,41.3c6.1,14.2,12.2,28.4,18,42.7c43.7,107.1,76.7,226.4,41,340.9c-8.1,26.1-19.9,51-35.4,73.5
						c-18.9,27.4-43.7,49.9-65.5,74.9c-21.4,24.4-37.7,51.5-48.5,82.2c-10.2,29.2-15.8,59.7-19.9,90.3c-2,15.1-3.6,30.2-5.2,45.4
						c-0.5-0.9-1-1.8-1.5-2.7c24.4,7.7,44.4,25,55.8,47.8c-1.6,0.6-3.2,1.3-4.8,1.9c-13.1-48.5,3.6-99.5,35.5-137.1
						c35-41.4,86.1-63,139.4-67.9c28.2-2.6,56.7-0.8,84.6,4c13.4,2.3,26.7,5.4,39.8,9.1c10.8,3,24.9,8.3,22.2,22.2
						c-1.8,9.7-10.9,17.3-18.8,22.2c-12.9,8-26.6,14.9-40.5,21c-28.3,12.5-58.3,21.3-88.8,26.1c-35.7,5.6-72.5,4.1-107.5,13.6
						c-33.1,9-66.9,31.8-73.3,67.7c-0.6,3.2-5.7,2.5-5.1-0.7c4.7-26.5,23.7-46.9,46.7-59.7c25.1-14,53.9-17.9,82.1-20.3
						c30.1-2.6,59.8-4.9,89.2-12.4c28.3-7.3,55.8-18.1,81.5-32.1c10.2-5.6,24.6-12.2,28.9-24.1c6-16.6-22.7-20.1-33.4-22.7
						c-26.5-6.3-53.8-10.1-81-10.1c-52.4,0-106,14.3-145.5,50.1c-40.6,36.8-65.9,94.4-51.1,149c0.9,3.2-3.3,4.9-4.8,1.9
						c-10.9-21.7-30-37.7-53-45c-1.1-0.3-1.7-1.7-1.5-2.7c6.1-57.3,12.5-116.8,39.1-168.9c28.3-55.5,82.4-91.2,112.9-145.2
						c56.8-100.8,41.3-222.9,5.6-327.8c-9.7-28.5-20.9-56.4-32.6-84.1c-5.7-13.5-11.5-26.9-17.4-40.4c-5.8-13.4-11.2-29.3-23.2-38.6
						c-25.9-20.1-50.4,19.5-61.9,37.8c-16,25.4-27.6,53.3-36.4,81.9c-17.4,56.7-23.9,116.1-30.9,174.8
						c-6.5,55.4-11.9,111.5-7.3,167.3c2.3,27.6,7,55,15.2,81.5c8.2,26.4,20.2,51.4,29.3,77.4c8.7,24.8,13.9,49.9,12.5,76.3
						c-1.5,29.2-8.1,59.3,3,87.5c5.3,13.4,14.2,24.9,27.4,31.2c3,1.4,1.1,5.9-2,4.7c-26.8-10.3-56.2-20.9-85.4-17.3
						c-16.3,2-31.2,9.4-42.3,21.6c-13.1,14.3-20.5,32.7-27.5,50.6c-27.1,69.1-64.6,132.6-115,187.5c-28.3,30.8-59.9,58.4-94.2,82.3
						c-1.9,1.4-4.1-0.3-4.1-2.4c1-41.2-17.2-79.4-25.6-119c-3.9-18.3-5.7-37.4-1.9-56c4.9-24.4,19.3-45.1,35.4-63.6
						c18.5-21.4,38.3-41.7,58.6-61.3c19.6-18.9,39.6-37.7,61-54.6c17.8-14.1,37.4-26.9,59.5-32.7c19.7-5.2,40-3.9,59.5,1.7
						c47.1,13.5,85.5,47,132.6,60.6c-1,1.3-2,2.6-3.1,3.9c-59.7-61.6-119.3-123.2-179-184.8c-27.8-28.7-56.1-57-83.2-86.3
						c-21.4-23.1-42.1-48.2-54.3-77.5c-12.3-29.6-12.8-60.8-3.8-91.3c9.4-31.8,26.4-60.6,39.6-90.9c12.1-27.7,19.4-56.6,20.2-86.9
						c0.7-29.3-4.3-58.8-14-86.4c-21.9-62.3-68-116.3-129.4-142c1.2-0.9,2.4-1.8,3.5-2.7c2.8,61.6-26.2,117.6-44.1,174.9
						c-9.3,29.6-15.6,60.6-12.7,91.7c2.8,31,13.9,60.6,28.8,87.8c15.3,28,34.6,53.7,54.6,78.6c23.8,29.7,48.4,58.8,72.7,88.1
						c51,61.2,102.6,121.9,156,180.9c60.4,66.8,123.2,131.4,189.6,192.2c-1.1,1.3-2.1,2.7-3.2,4c-68.2-69.5-135.7-139.7-203.2-209.7
						c-34.6-35.8-69.2-71.7-104-107.3c-30.8-31.6-64.1-62-90.5-97.4c-22.9-30.7-36.9-65.2-38.8-103.6c-1.8-34.3,4-68.5,8.8-102.4
						c4.9-34.9,9.1-70.7,2.7-105.7c-7-38.6-27.1-73-52.4-102.5c-26-30.4-57.2-56-88.9-80.3c-38.7-29.6-78-58.4-117.9-86.4
						c-9.8-6.9-19.6-13.7-29.5-20.5c1.4-0.6,2.8-1.1,4.1-1.7c-18.1,121.9-36.8,260.9,39.6,368c41.1,57.6,106.4,85.6,163.4,124.1
						c59.6,40.3,108,94.5,155.3,148.1c54,61.3,108,122.5,162,183.8c-1.4,1-2.8,2-4.1,3c-29.9-35.5-61.1-69.7-93.8-102.7
						c-16.1-16.2-32.5-32.2-49.3-47.8c-15.6-14.6-31.3-31.4-49.7-42.5c-33.4-20.3-70.4,2.7-104.5,8.9c-33.2,6-67.7,3.3-99.8-6.8
						c-36.5-11.4-69.6-32.6-94.8-61.5c-1.2-1.3-0.2-3.2,1.1-3.9c25.4-12.4,41.3-38,67.6-49.3c22.4-9.7,48.1-9.7,71.7-4.8
						c58,11.8,109.6,48,152,87.8c46.1,43.2,85,93.2,126.8,140.4c41.8,47.1,88.1,89.7,133.9,132.9c50.5,47.5,100.5,96.2,141.2,152.5
						c-1.5,0.4-3.1,0.8-4.6,1.2c1.3-15.3-11.9-27-21.7-36.9c-13-13.1-26-26.1-39.1-39c-25.6-25.3-51.4-50.4-77.4-75.3
						c-26-24.9-52.2-49.5-78.6-74c-13.2-12.2-26.4-24.6-39.9-36.5C509.7,866,496,854.9,480,848c-28.5-12.4-59.4-7-89-2.9
						c-29.6,4.1-59.1,4.6-88.6-0.7c-31.7-5.6-60.4-18-89-32.3c-28.3-14.2-56.7-27.2-88.7-29.3C67.9,779,12.1,802.5-38.5,825.4
						c-7.5,3.4-18.7,8.7-17.3,18.8c1,7.4,8.1,12.8,13.4,17.3c11.4,9.6,22.8,19.1,34.5,28.2C16,908.3,41.2,925.7,69,938
						c28.3,12.5,58.6,18.7,89.6,16.1c32.8-2.8,64.9-12.7,96.3-21.7c33.6-9.6,67-20.2,100-31.8c16.7-5.8,33.3-11.9,49.9-18.2
						c15-5.7,29.8-12.5,45.3-16.9c13.3-3.8,26.9-5.2,40.5-2.1c12.9,3,24.8,9.2,35.7,16.7c12.2,8.4,23.3,18.4,34.1,28.4
						c13.4,12.3,26.6,24.8,39.7,37.4c51.1,49.1,100,100.4,146.7,153.7c11.7,13.4,23.3,26.9,34.7,40.5
						C783.8,1142.6,779.7,1145.7,777.6,1143.1L777.6,1143.1z"/>
				</g>
				<g>
					<path class="st3" d="M534.9,876c-62.4-46.7-142.3-21.7-210.9-7.1c-38.7,8.2-77.6,10.9-117.2,8.9c-40.4-2.1-80.5-8.2-120.4-14.4
						c-48.7-7.5-97.2-16-145.5-25.4c-3.2-0.6-2.5-5.7,0.7-5.1c43.4,8.4,87,16.1,130.7,23.1c40.7,6.5,81.5,13,122.6,15.9
						c40.7,2.9,81.1,1.5,121.1-6.6c37.6-7.6,74.6-18.7,113-21.1c38.4-2.4,77.6,4.3,109,27.7C540.7,874,537.5,878,534.9,876
						L534.9,876z"/>
				</g>
				<g>
					<path class="st3" d="M101.9,678c23.9-2,47.8-4,71.8-5.9c21.3-1.7,42.6-2.7,63.9-0.4c40.2,4.5,78.4,19.2,114.5,36.9
						c20.9,10.3,41.3,21.6,61.6,33.1c2.8,1.6,0.9,6.3-2,4.7c-35-19.6-70.2-39.3-108-53.2c-18.9-7-38.4-12.4-58.3-15.3
						c-21.4-3.2-42.9-2.8-64.4-1.2c-26.2,1.9-52.3,4.3-78.4,6.4C99.3,683.4,98.6,678.3,101.9,678L101.9,678z"/>
				</g>
				<g>
					<path class="st3" d="M67.1,115.2c40.3,77.7,65.6,161.9,101.1,241.7c36,81,82.5,156.9,132.3,230.1c27.9,41,56.8,81.3,85.7,121.6
						c1.9,2.7-2.2,5.7-4.1,3c-51.9-72.2-103.8-144.6-149.4-221c-22.4-37.5-43.2-75.8-61.7-115.4c-18.5-39.7-34.1-80.6-49.8-121.5
						c-17.8-46.3-35.9-92.6-58.8-136.7C60.8,114.1,65.6,112.3,67.1,115.2L67.1,115.2z"/>
				</g>
				<g>
					<path class="st3" d="M337.4,233.8c33.3,59.1,53.3,125.4,57.8,193.2c2.4,36.7-0.5,73.4-4.2,109.9c-3.6,36.1-8.2,72.6-6.2,108.9
						c2,34.7,12.2,66.9,30,96.8c1.7,2.8-2.4,5.9-4.1,3c-15.1-25.3-25.6-52.6-29.4-81.9c-4.3-33.5-1.3-67.7,2-101.1
						c3.7-38.2,8.5-76.4,7.7-114.8c-0.7-34.6-5.4-69.1-14.1-102.5c-9.8-37.8-24.4-74.4-43.6-108.4
						C331.7,234,335.8,230.9,337.4,233.8L337.4,233.8z"/>
				</g>
				<g>
					<path class="st3" d="M768.2,248c-13.4,21.1-15.9,46.6-17.1,70.9c-1.3,25.9-1.6,51.8-1.3,77.7c0.7,52.1,4.1,104.1,8,156.1
						c1.9,25.6,4,51.1,5.7,76.7c1.6,24,2.2,48.3-2,72c-8.6,48.3-36.6,90.6-45.7,138.8c-5.4,28.5-6.1,57.7-7.9,86.6
						c-1.9,31-3.9,62-5.8,93c-0.2,3.3-5.3,2.6-5.1-0.7c1.7-27.6,3.5-55.3,5.2-82.9c1.7-26.6,2.6-53.4,5.9-79.9
						c3.1-24.6,10.2-47.9,19.3-71c9.1-23.1,19.5-45.7,25.8-69.8c6.4-24.4,7.1-49.5,5.8-74.6c-1.3-25.7-3.6-51.4-5.5-77
						c-3.9-52.3-7.6-104.6-8.6-157.1c-0.6-29-0.4-57.9,1-86.9c1.3-26,4-52.7,18.3-75.2C765.9,242.1,770,245.3,768.2,248L768.2,248z"
						/>
				</g>
				<g>
					<path class="st3" d="M708.5,1067.6c-53.9-38.5-131.6-39.5-186.1-1.5c-34.6,24.2-57.8,60.4-77.3,97.1
						c-9.9,18.7-19.1,37.8-28.7,56.6c-9.3,18.2-20.1,35.7-29.4,54c-5.1,10-9.5,20.5-12,31.6c-2.1,9.6-2.8,19.5-3.4,29.4
						c-1.1,19.4-1,39.4-6.6,58.2c-1,3.2-5.7,1.1-4.7-2c5.4-18,5.2-37.4,6.2-56c1.1-18.9,3.7-36.6,11.4-54
						c8.6-19.4,20.3-37.4,30.2-56.2c10.1-19.3,19.5-39,29.5-58.3c19.4-37.1,41.8-74,75.6-99.8c26.9-20.6,60-31.9,93.8-33.3
						c37.1-1.5,74.4,8.8,104.6,30.4C714.4,1065.5,711.2,1069.5,708.5,1067.6L708.5,1067.6z"/>
				</g>
				<g>
					<path class="st3" d="M741.7,1065.6c5.3-47.5,47-78.1,88.8-93.4c23-8.4,47.1-14,71-19.1c24.6-5.2,49.5-9.3,74.4-12.3
						c28-3.3,56.2-5.2,84.5-5.7c3.3-0.1,3.9,5,0.6,5.1c-47.9,0.8-95.6,5.7-142.7,14.7c-23.7,4.5-47.4,9.8-70.5,16.9
						c-22.4,6.9-44.7,16-63.2,30.8c-19.8,15.8-35,38.1-37.8,63.7C746.4,1069.6,741.4,1068.9,741.7,1065.6L741.7,1065.6z"/>
				</g>
			</g>
			
				<rect x="776.5" y="1118.4" transform="matrix(0.8965 -0.4431 0.4431 0.8965 -420.041 461.2557)" class="st3" width="1" height="22.1"/>
		</g>
		<g>
			<g>
				<g>
					<path class="st3" d="M7975.8,1116.9c-54-55.7-110.4-108.9-169.1-159.5c-28.5-24.5-57.3-48.9-87.2-71.6
						c-25.7-19.6-55.8-37.6-89.2-29.1c-16.6,4.2-31.9,12.9-47.3,20.1c-16.5,7.8-33.2,15.4-49.9,22.7c-34.3,15-69,28.9-104.1,41.9
						c-32.3,11.9-65.2,24.7-99.2,30.8c-30.8,5.5-61.8,3.1-91.7-6.3c-29.9-9.4-57.7-24.8-84-41.8c-13.2-8.6-26.1-17.6-38.9-26.8
						c-9.1-6.5-22.8-14-25.2-26c-2.9-14.5,12.4-22.7,23-28.3c13.4-7.1,26.8-14,40.5-20.5c26.6-12.7,54.3-23.8,83.3-29.7
						c29-5.9,58.7-5.8,87.4,2.1c34,9.4,65.1,27,99.2,36.3c32.5,8.8,66.7,11.4,100.1,7.4c30.4-3.6,59.8-14.2,90.6-14.5
						c34.8-0.3,62.8,18,89.2,38.7c30.5,23.9,60.7,48.3,90.7,72.9c30.1,24.7,60.1,49.6,89.8,74.7c14.9,12.6,29.7,25.2,44.4,37.9
						c13,11.2,26.5,22,38.8,33.9c8.6,8.3,15.9,18.2,15.7,30.7c0,2.3-3.2,3.3-4.7,1.5c-80.8-96.6-187.8-165.4-279.7-250.3
						c-92.1-85-174.2-198.3-301.4-231.5c-28.2-7.4-59.8-9.6-87.3,1.8c-30.2,12.4-45.5,43-73.1,59c0.3-1.4,0.6-2.7,0.9-4.1
						c51.9,51.7,131.6,72.7,202.3,53.8c32.1-8.6,65.6-31.8,99.9-19.6c20,7.2,36.8,23,53.2,36c18.5,14.7,36.7,29.7,54.6,45.2
						c40,34.4,78.4,70.6,115.1,108.4c2.4,2.5-1.6,5.8-4,3.4c-54.5-53.5-108.9-107.1-163.4-160.6c-54.3-53.4-108.4-108.4-173.4-148.9
						c-61.1-38-132.8-60.4-182.8-114.4c-41.4-44.6-65.1-103.3-76.1-162.5c-13.9-75.2-8-152.3-2.3-228c0.2-2.1,2.4-3,4.1-2
						c43.8,25.7,87.1,52.2,129.8,79.7c35.7,23,71.6,46.2,103.9,73.8c29.5,25.3,56.4,54.7,73.6,89.8c16,32.8,21,68.6,20.7,104.8
						c-0.7,73-20,150.9,19.9,217.6c23.6,39.5,60.5,69.2,94.5,99.3c37.3,33,74.4,66.2,111.5,99.5c76,68.2,151.8,136.7,228.2,204.5
						c9.3,8.3,18.6,16.5,28,24.8c2.5,2.2-0.2,6.5-3,4.4c-130.2-103.3-249.1-219.8-364.5-339.2c-28.7-29.7-57.3-59.6-85.8-89.6
						c-22.9-24.1-45.5-48.6-65.1-75.4c-18.6-25.5-34.5-53.1-43.8-83.4c-9.2-30.2-10.2-61.5-5.5-92.5
						c10.7-70.8,47.1-138.7,38.5-211.8c-0.2-1.9,1.5-3.7,3.5-3c112.8,38,186.4,165.4,164.7,282.2c-12.1,65.3-61.5,126.9-46,195.8
						c7.6,33.8,29.3,62.3,52.9,86.7c26.8,27.7,56.6,52.6,85.3,78.2c74.7,66.8,149.3,133.7,224,200.5c2.2,2-0.7,4.7-2.9,4.2
						c-42.5-9-79.4-33.2-120.2-46.9c-20.2-6.8-41.7-10.7-62.9-7.1c-24,4-45,17.2-63.4,32.6c-20.1,16.9-38.3,36.4-56.1,55.6
						c-20.1,21.7-39.3,44.2-57.6,67.5c-16.6,21-33.3,43.4-39.2,70c-4.3,19.6-1.8,39.9,3.2,59.1c11.3,42.7,34.5,82.2,36.6,127.2
						c-1.5-0.7-2.9-1.5-4.4-2.2c62.8-50.8,114.7-114.4,151.9-186.1c18.7-36,31.9-73.6,44.4-112.1c10.5-32.4,26.4-64,61.5-74.1
						c32.4-9.4,67.7,0.5,98.8,10c-0.6,1.7-1.1,3.3-1.7,5c-26.3-10.1-39.3-38-42.6-64.5c-3.7-30.4,2-61.2-4.2-91.5
						c-6-29-19.7-55.7-32.6-82.1c-12.9-26.3-24-52.9-31.4-81.3c-14.8-56.9-16.7-116.4-15.2-174.9c1.6-62.6,3.8-126.1,13.5-188
						c4.8-30.4,11.7-60.7,22.7-89.5c5.3-14,11.6-27.7,18.9-40.8c6.6-11.9,13.8-24.3,23.6-34c8-8,18.6-13.7,30.3-11.8
						c12.8,2.2,21.9,12.7,28.6,23.1c8.4,13.1,15,27.4,22.2,41.2c7.3,14.1,14.6,28.3,21.7,42.6c52.9,107.1,95.6,227.6,67.3,348.1
						c-6.5,27.5-16.7,54-31.1,78.3c-17.5,29.6-41.3,54.7-62,82c-20.2,26.8-35.1,55.9-43.9,88.3c-8.4,30.8-11.9,62.7-13.8,94.5
						c-1,15.7-1.5,31.4-2.1,47.1c-0.6-0.9-1.2-1.8-1.8-2.7c25.7,6.1,47.5,22.5,61,45.2c-1.6,0.8-3.2,1.5-4.8,2.3
						c-17.1-49-3.6-102.7,26.4-143.8c33-45.2,84.1-71.2,138.7-80.2c28.8-4.7,58.4-5,87.4-2.1c14,1.4,27.9,3.6,41.7,6.4
						c11.4,2.3,26.2,6.8,24.6,21.3c-1.2,10.2-9.9,18.6-17.8,24.3c-12.7,9.2-26.3,17.3-40.2,24.6c-28.2,14.9-58.4,26.2-89.6,33.4
						c-36.3,8.4-74.4,9.5-109.8,21.9c-33.4,11.7-66.6,37.7-70.5,75.2c-0.4,3.4-5.6,3-5.3-0.4c2.9-27.6,21-50.1,43.7-65
						c24.8-16.3,54.2-22.4,83.1-27c30.8-4.9,61.3-9.4,90.9-19.4c28.6-9.6,56.1-22.7,81.6-39.1c10.1-6.5,24.5-14.4,28-27
						c5-17.5-24.9-19.1-36.1-20.9c-27.8-4.6-56.1-6.4-84.2-4.4c-54,3.9-108.2,22.6-146.2,62.3c-39.1,40.9-60.9,102.1-41.7,157.3
						c1.1,3.2-3,5.3-4.8,2.3c-12.8-21.5-33.6-36.6-57.9-42.4c-1.2-0.3-1.8-1.6-1.8-2.7c2-59.5,4.3-121.3,27.8-176.9
						c25.1-59.3,78.2-100,105.6-157.9c51.1-108,26.2-232.6-18.4-338c-12.1-28.6-25.6-56.5-39.7-84.2c-6.9-13.5-13.9-26.9-20.9-40.3
						c-7-13.3-13.7-29.4-26.7-38c-28.2-18.8-50.5,23.8-61,43.5c-14.6,27.3-24.5,56.9-31.5,87c-13.7,59.7-16.1,121.4-18.9,182.3
						c-2.7,57.6-4.1,115.7,4.7,172.9c4.4,28.3,11.3,56.2,21.7,82.8c10.4,26.6,24.6,51.5,35.9,77.6c10.8,24.9,18,50.4,18.5,77.7
						c0.6,30.2-4,61.7,9.5,89.9c6.4,13.4,16.4,24.7,30.5,30.1c3.2,1.2,1.6,6-1.7,5c-28.3-8.7-59.4-17.4-89.2-11.5
						c-16.7,3.3-31.4,12-42,25.4c-12.4,15.7-18.7,35.2-24.6,54.1c-22.9,73.2-56.8,141.4-104.7,201.6c-26.9,33.8-57.4,64.6-91,91.8
						c-1.9,1.5-4.3,0-4.4-2.2c-2-42.5-23.5-80.5-35.1-120.7c-5.4-18.6-8.6-38.2-6.1-57.5c3.3-25.5,16.6-47.8,31.7-68.1
						c17.5-23.4,36.4-45.7,55.9-67.5c18.8-21,38.1-41.7,58.8-60.7c17.3-15.8,36.5-30.5,58.9-38.1c19.9-6.8,40.9-7,61.4-2.7
						c49.5,10.4,91.5,42.1,141.1,52.7c-1,1.4-1.9,2.8-2.9,4.2c-66-59.1-132-118.2-198-177.2c-30.7-27.5-62-54.6-92.1-82.8
						c-23.8-22.2-46.9-46.5-61.6-75.9c-14.9-29.6-17.7-61.7-10.7-93.8c7.3-33.5,22.7-64.4,34.1-96.6c10.4-29.5,15.9-59.7,14.4-91
						c-1.4-30.3-8.8-60.2-20.8-88c-27.1-62.5-78.6-114.8-143.8-136.7c1.2-1,2.3-2,3.5-3c7.4,63.2-18.4,123.1-32.6,183.4
						c-7.4,31.2-11.6,63.5-6.4,95.4c5.2,31.8,18.8,61.4,36.1,88.4c17.9,27.7,39.6,52.8,62,77c26.7,28.8,54.1,57,81.4,85.4
						c57,59.3,114.6,118,174,174.9c67.1,64.3,136.6,126.3,209.4,184.1c-1,1.5-2,2.9-3,4.4c-75.3-66.6-150-133.9-224.8-201.1
						c-38.3-34.4-76.6-68.7-115-102.9c-34-30.3-70.6-59.1-100.4-93.7c-25.9-29.9-42.8-64.4-47.6-103.8c-4.3-35.2-0.9-70.8,1.5-106.1
						c2.5-36.3,4.2-73.5-4.9-109.1c-10.1-39.2-33.3-73.3-61.5-101.8c-29.1-29.4-63.1-53.5-97.5-76.2c-42-27.7-84.7-54.4-127.8-80.3
						c-10.6-6.4-21.2-12.7-31.9-18.9c1.4-0.7,2.8-1.3,4.1-2c-9.6,126.9-18.7,271.5,67.9,376.2c46.6,56.3,115.9,80.3,177.5,115.8
						c64.4,37.2,118.2,89.4,170.8,141.1c60.2,59.1,120.3,118.3,180.5,177.4c-1.3,1.1-2.7,2.3-4,3.4c-33.4-34.3-68.1-67.3-104.2-98.9
						c-17.8-15.5-35.9-30.7-54.3-45.6c-17.2-13.8-34.6-30-54.3-40.1c-35.9-18.4-72.3,7.9-107,16.8c-33.7,8.6-69.5,8.3-103.3,0.3
						c-38.5-9.1-74.1-28.5-102.2-56.4c-1.3-1.3-0.5-3.3,0.9-4.1c25.2-14.7,39.8-42.1,66-55.7c22.4-11.6,48.8-13.5,73.5-10.3
						c60.6,7.9,116.4,41.3,163.1,79.2c50.6,41.1,94.4,89.8,141,135.3c46.5,45.5,97.3,86,147.7,127c55.5,45.2,110.6,91.7,156.7,146.8
						c-1.6,0.5-3.1,1-4.7,1.5c0.2-15.9-14.2-27-25.1-36.4c-14.3-12.5-28.7-24.9-43.2-37.3c-28.2-24.2-56.6-48.1-85.3-71.8
						c-28.6-23.7-57.4-47.2-86.4-70.4c-14.5-11.6-29-23.4-43.8-34.7c-14.2-10.8-29.1-21.2-46.1-27.2c-30.3-10.7-61.7-2.8-91.9,3.6
						c-30.2,6.4-60.5,9.1-91.3,5.8c-33.1-3.5-63.6-14.1-94.1-26.8c-30.2-12.5-60.4-23.8-93.5-23.7c-58.8,0.3-114.5,28.7-165,56
						c-7.5,4-18.6,10.4-16.5,20.6c1.5,7.6,9.3,12.6,15.1,16.9c12.4,9,24.9,18,37.6,26.5c26,17.4,53.3,33.5,82.8,44.1
						c30.1,10.8,61.8,15,93.5,9.9c33.6-5.3,65.9-17.8,97.7-29.4c33.9-12.4,67.5-25.8,100.7-40.1c16.8-7.2,33.5-14.7,50-22.4
						c15-7,29.8-15.1,45.4-20.8c13.4-4.9,27.4-7.3,41.6-5.1c13.6,2.1,26.2,7.6,38,14.5c13.2,7.7,25.3,17.2,37.3,26.7
						c14.7,11.7,29.3,23.6,43.7,35.6c56.2,46.9,110.5,96.1,162.5,147.6c13,12.9,25.9,26,38.7,39.1
						C7982.2,1115.9,7978.1,1119.3,7975.8,1116.9L7975.8,1116.9z"/>
				</g>
				<g>
					<path class="st3" d="M7706.1,859.6c-67.7-43.5-148.2-11.8-217.8,8.2c-39.3,11.3-79.2,17-120,17.8c-41.8,0.8-83.5-2.5-125.1-6
						c-50.7-4.2-101.3-9.4-151.8-15.4c-3.4-0.4-3-5.7,0.4-5.3c45.4,5.5,90.8,10.2,136.4,14.1c42.4,3.7,84.9,7.3,127.5,7.4
						c42.1,0,83.7-4.4,124.3-15.7c38.1-10.6,75.5-24.8,114.9-30.1c39.3-5.3,80.3-1.3,114.3,20.5
						C7711.9,857.1,7709,861.5,7706.1,859.6L7706.1,859.6z"/>
				</g>
				<g>
					<path class="st3" d="M7245.5,687.5c24.5-3.8,49-7.7,73.5-11.4c21.8-3.3,43.7-6,65.8-5.1c41.7,1.7,82.2,14,120.6,29.6
						c22.3,9.1,44.2,19.3,65.9,29.5c3.1,1.4,1.4,6.5-1.7,5c-37.5-17.7-75.2-35.3-115.1-46.8c-20-5.8-40.5-9.9-61.2-11.5
						c-22.3-1.7-44.4,0.3-66.5,3.5c-26.8,3.9-53.6,8.3-80.3,12.4C7243.2,693.2,7242.1,688,7245.5,687.5L7245.5,687.5z"/>
				</g>
				<g>
					<path class="st3" d="M7168.2,110.2c47.3,77.1,79.5,161.9,121.9,241.5c43.1,80.8,96.6,155.5,153.2,227.3
						c31.7,40.2,64.5,79.6,97.2,119c2.2,2.6-1.8,6.1-4,3.4c-58.7-70.6-117.6-141.3-170.2-216.7c-25.8-36.9-50.1-75-72-114.3
						c-22-39.5-41-80.5-60.2-121.5c-21.7-46.4-43.8-92.8-70.7-136.5C7161.7,109.6,7166.5,107.4,7168.2,110.2L7168.2,110.2z"/>
				</g>
				<g>
					<path class="st3" d="M7455.4,212.5c38.7,58.4,64.2,125.3,73.8,194.8c5.2,37.7,4.9,75.6,3.8,113.5c-1.1,37.4-3.1,75.4,1.7,112.6
						c4.6,35.6,17.5,68,38,97.5c1.9,2.8-2.1,6.2-4,3.4c-17.4-25-30.2-52.3-36.3-82.2c-6.9-34.2-6.3-69.6-5.4-104.3
						c1-39.6,3.1-79.3-0.5-118.8c-3.3-35.5-10.7-70.7-22-104.6c-12.8-38.2-30.6-74.8-52.9-108.5
						C7449.5,213.1,7453.5,209.7,7455.4,212.5L7455.4,212.5z"/>
				</g>
				<g>
					<path class="st3" d="M7900.2,195.5c-12.2,22.7-13,49.1-12.4,74.3c0.6,26.8,2.2,53.5,4.4,80.2c4.6,53.6,11.9,107,19.7,160.2
						c3.8,26.2,7.9,52.3,11.5,78.6c3.4,24.6,5.9,49.5,3.3,74.3c-5.3,50.4-31,96-36.9,146.3c-3.5,29.7-2.1,59.9-1.8,89.8
						c0.3,32.1,0.6,64.2,0.8,96.2c0,3.4-5.3,3-5.3-0.4c-0.3-28.6-0.5-57.2-0.8-85.8c-0.2-27.5-1.3-55.2,0.2-82.7
						c1.4-25.6,7-50.1,14.6-74.5c7.7-24.4,16.7-48.6,21.4-73.8c4.8-25.6,3.7-51.6,0.5-77.3c-3.2-26.4-7.5-52.6-11.4-78.9
						c-7.9-53.6-15.5-107.2-20.4-161.2c-2.7-29.8-4.7-59.7-5.3-89.6c-0.6-26.9,0.3-54.6,13.3-78.8
						C7897.5,189.5,7901.8,192.5,7900.2,195.5L7900.2,195.5z"/>
				</g>
				<g>
					<path class="st3" d="M7899.1,1044.2c-58.4-35.7-138.5-31-191.8,12.2c-33.9,27.4-55.1,66.4-72.5,105.7
						c-8.8,20-16.9,40.3-25.4,60.4c-8.3,19.5-18.1,38.3-26.3,57.8c-4.5,10.7-8.3,21.9-10,33.4c-1.5,10.1-1.5,20.3-1.3,30.5
						c0.3,20.1,1.9,40.6-2.5,60.4c-0.7,3.3-5.8,1.6-5-1.7c4.3-19,2.6-38.9,2.3-58.2c-0.3-19.5,1.1-38,7.8-56.5
						c7.5-20.6,18.2-40,26.9-60.1c9-20.6,17.2-41.6,26.1-62.2c17.2-39.7,37.6-79.3,70.5-108.4c26.2-23.2,59.4-37.3,94.1-41.2
						c38.1-4.3,77.2,3.5,110,23.6C7905,1041.6,7902,1045.9,7899.1,1044.2L7899.1,1044.2z"/>
				</g>
				<g>
					<path class="st3" d="M7933.1,1039.7c1.9-49.3,42.7-83.9,84.6-102.7c23.1-10.4,47.5-17.9,71.7-24.9c25-7.2,50.3-13.2,75.8-18.1
						c28.6-5.5,57.5-9.5,86.6-12.1c3.4-0.3,4.4,4.9,1,5.2c-49.3,4.4-98.1,12.9-145.9,25.6c-24.1,6.4-48.1,13.6-71.4,22.6
						c-22.6,8.7-44.9,19.8-62.8,36.3c-19.3,17.8-33.2,41.8-34.3,68.4C7938.3,1043.4,7933,1043.1,7933.1,1039.7L7933.1,1039.7z"/>
				</g>
			</g>
			<polygon class="st3" points="7979.5,1113 7968,1093.3 7968.9,1092.7 7980.4,1112.5 			"/>
		</g>
		<g>
			<g>
				<path class="st3" d="M1548,1165.6c-28.2-69.6-53.4-140.4-75.2-212.2c-10.6-34.8-20.9-69.9-29.4-105.2
					c-7.3-30.4-11.5-64.1,9.1-90.4c10.2-13.1,23.9-23.3,36.3-34.1c13.4-11.6,26.6-23.4,39.6-35.4c26.7-24.5,52.6-49.8,77.8-75.9
					c23.2-24,47.4-48.1,66.1-75.8c17-25.2,26.9-53.6,30.3-83.7c3.3-30.2,0.6-60.8-4.2-90.7c-2.4-15.1-5.4-30-8.6-45
					c-2.2-10.6-3.4-25.7-13.2-32.5c-11.7-8.3-24.9,2.1-34.1,9.3c-11.5,9.1-22.9,18.3-34,27.8c-21.6,18.6-42.3,38.8-58.9,62.2
					c-16.6,23.4-28.1,49.8-32.3,78.3c-5,33.8-1.5,68.2-6.6,102.1c-4.9,32.2-16,63.5-32.6,91.6c-15.1,25.5-36,47.5-48.3,74.6
					c-13.8,30.7-8.6,62.7-0.6,94.2c9.3,36.4,19.1,72.6,29.1,108.8c10.1,36.3,20.4,72.6,31.1,108.8c5.3,18.1,10.8,36.1,16.3,54.2
					c4.8,15.9,9.2,32.1,14.9,47.6c4,10.9,9.9,21.2,21.1,25.9c2.1,0.9,4.1-1.6,3.2-3.5c-54-109.3-73.2-231-112.4-345.7
					c-39.3-114.9-107.6-231.8-87.3-357.6c4.5-27.9,14.9-56.7,35.7-76.7c22.8-21.9,55.9-23.5,80.9-41.7c-1.3-0.3-2.7-0.6-4-0.8
					c25.5,66.2,13,145-31.4,200.3c-20.2,25.1-53.9,45.7-56.4,80.9c-1.5,20.5,6,41.6,11.1,61.2c5.8,22.1,12,44.1,18.7,66
					c14.9,48.9,31.9,97,51.1,144.4c1.2,3.1,5.8,0.8,4.6-2.2c-26.2-69.2-52.3-138.4-78.5-207.6c-26.1-68.9-53.7-138.4-64.2-211.8
					c-9.8-69-1.6-141.3-29.9-206.7c-23.4-54.1-66-98.1-114.3-130.9C1107.6,95.9,1037,71,967.6,46.6c-1.9-0.7-3.6,1-3.4,2.9
					c5.6,48.8,12.3,97.6,19.9,146.1c6.4,40.6,12.9,81.5,24.8,120.9c10.9,36,26.4,71.4,50.9,100.3c22.8,27,52.6,45.4,84.8,59.3
					c64.9,27.9,141.6,41.3,185,102.7c25.7,36.4,37.7,80.7,51.1,122.6c14.7,45.9,29.6,91.8,44.6,137.7c30.7,94,61.8,188,92,282.2
					c3.7,11.5,7.4,23,11,34.5c1,3.1,5.9,2.3,5-0.9c-40.6-155.8-97.4-306.6-158.1-455.6c-15.1-37.1-30.4-74.1-45.8-111.1
					c-12.4-29.7-25.2-59.3-41.4-87.2c-15.3-26.4-33.6-51.4-56.8-71.4c-23.1-19.9-50.5-33.1-79.8-41.1
					c-66.9-18.2-141.3-12.5-202.7-48.6c-1.6-1-3.8-0.1-4,1.9c-10.4,114.8,73.7,229.8,185.7,256.2c62.6,14.7,136.5-4.9,191.5,35.7
					c27,19.9,43.7,50.3,56.2,80.8c14.1,34.5,24.5,70.7,36,106.1c30,92.3,60.1,184.5,90.1,276.8c0.9,2.7,4.4,1.2,4.9-0.9
					c8.6-41.2,1.6-83.3,5.4-124.9c1.9-20.6,6.8-41.1,18.3-58.5c12.9-19.7,32.8-33.2,53.7-43.4c22.9-11.2,47.2-19.7,71.2-27.9
					c27.1-9.3,54.6-17.5,82.3-24.7c25.1-6.5,51.5-12.6,77.3-7.3c19.1,3.9,36,14,51.1,26c33.4,26.7,59.4,62.7,98.4,82.2
					c-0.1-1.6-0.2-3.1-0.2-4.7c-69.6,35.8-146.2,56.9-224.3,61.9c-39.2,2.5-77.7-0.4-116.7-4.4c-32.8-3.4-67-1.6-89.7,25.5
					c-20.9,25-26,60.2-29.7,91.5c1.7,0.2,3.4,0.3,5.1,0.5c1.3-27.3-18.3-49.7-40.5-63c-25.5-15.2-55-22.1-79.4-39.5
					c-23.4-16.7-41.6-39.2-60-61c-18.3-21.7-37.5-42-59.7-59.6c-44.7-35.4-96.6-60.3-149-81.8c-56.1-23-113.2-45.9-171.8-61.5
					c-28.8-7.7-58.3-13.3-88.2-14.9c-14.5-0.8-29.1-0.5-43.6,0.8c-13.2,1.2-27,2.7-39.4,7.6c-10.2,4-19.5,11.2-22.3,22.2
					c-3.1,12.2,2.7,24.4,9.3,34.3c8.3,12.5,18.4,24,27.8,35.7c9.7,12,19.4,24,29.3,35.9c74.3,88.8,164.3,173.7,282.2,195.7
					c26.9,5,54.4,6.3,81.6,3.1c33.1-3.9,64.6-15.2,96.9-22.9c31.6-7.5,63.2-9.3,95.4-4.4c30.6,4.6,60.2,14,89.1,24.7
					c14.3,5.3,28.4,10.9,42.6,16.6c-0.6-0.9-1.1-1.8-1.7-2.6c-4.6,25.2,1.3,50.9,16.2,71.7c1.3-1.1,2.6-2.2,3.9-3.3
					c-36.8-34.3-89.6-43.3-137.8-32.8c-53,11.6-96,46.7-125.2,91.5c-15.5,23.7-27.3,49.8-36,76.7c-4.2,13-7.7,26.2-10.6,39.5
					c-2.4,11-4.3,25.9,9.3,30.1c9.5,2.9,20.4-1.5,28.5-6.3c13.1-7.7,25.6-16.6,37.5-26c24.3-19.2,46.1-41.5,64.6-66.3
					c21.7-28.9,37.5-62.2,62.3-88.7c23.5-25,59.4-44.3,94.2-33.1c3.1,1,4.9-3.8,1.8-4.8c-25.6-8.2-52.6-1-74.7,13.3
					c-24.1,15.6-41,39.3-56.4,63.1c-16.4,25.4-32.3,50.6-52.7,73c-19.7,21.6-42.1,40.8-66.5,57c-9.7,6.4-22.3,16.1-34.8,14.3
					c-17.5-2.5-7.2-29.5-4.4-40.2c6.8-26.4,16.2-52.3,29-76.4c24.5-46.3,62.3-87,112.4-105.2c51.5-18.7,114.3-14.1,155.6,24.5
					c2.4,2.2,5.8-0.6,3.9-3.3c-14.1-19.7-19.3-44.1-14.9-67.9c0.2-1.1-0.7-2.2-1.7-2.6c-53.5-21.5-109.1-43.6-167.6-44.5
					c-62.3-1-119.2,30.2-181.2,31.9C1048.7,1041.8,948,971,872,890.3c-20.6-21.9-40.1-44.8-59.1-68.1c-9.3-11.4-18.4-22.8-27.6-34.3
					c-9.1-11.4-20.7-23.7-23.3-38.5c-5.7-32.3,40.8-35.4,62.3-37.1c29.9-2.3,60,0.5,89.4,6.1c58.2,11.2,113.8,33.2,168.9,54.5
					c52.1,20.1,104.2,41.6,151.4,71.8c23.3,14.9,45.4,31.9,64.9,51.6c19.5,19.6,36,41.9,54.7,62.2c17.8,19.3,37.7,35.6,61.6,46.8
					c26.5,12.3,56.3,20.6,76,43.6c9.4,10.9,15.4,24.2,14.7,38.8c-0.2,3.3,4.7,3.7,5.1,0.5c3.4-28.5,7.8-59.5,24.7-83.6
					c9.4-13.5,22.9-23.2,38.9-27.3c18.8-4.8,38.5-2.8,57.6-0.7c73.8,8.3,147.5,4.9,219.5-14c40.5-10.6,79.7-25.6,116.9-44.7
					c2.1-1.1,1.7-3.8-0.2-4.7c-36.9-18.4-62.2-52.3-93.2-78.3c-14.4-12-30.4-22.5-48.6-27.9c-23.9-7.1-48.9-4-72.8,1.5
					c-27.5,6.3-54.8,14.4-81.6,23.1c-25.9,8.4-51.8,17.4-76.8,28.4c-20.8,9.1-41.3,20.4-56.8,37.3c-13.8,15-22.2,33.5-26.4,53.4
					c-10.1,47.9,1.5,97.6-8.5,145.6c1.6-0.3,3.2-0.6,4.9-0.9c-26.6-81.6-53.1-163.1-79.7-244.7c-12.4-38-24.1-76.2-37.3-114
					c-10.4-29.8-22.9-59.7-43.1-84.3c-20.4-24.7-47.7-39.8-78.9-46.1c-32.5-6.6-66-5-98.9-7.5c-30.2-2.3-59.1-9.3-86.3-22.8
					c-26.3-13.1-50-31.3-69.9-52.9c-44.8-48.5-71-114.5-65-180.8c-1.3,0.6-2.7,1.3-4,1.9c53.1,31.3,116.2,31.8,175.3,42.8
					c30.5,5.7,60.8,14.6,87.1,31.7c26.1,17,47.1,40.6,64.2,66.5c17.6,26.7,31.3,55.7,44,85c15.1,35,29.4,70.3,43.8,105.5
					c30.2,73.7,59.7,147.7,87,222.6c30.8,84.6,58.5,170.4,81.3,257.5c1.7-0.3,3.4-0.6,5-0.9c-29.5-92.8-60-185.3-90.3-277.8
					c-15.5-47.3-31-94.7-46.2-142.1c-13.5-42-24.8-85.7-43.8-125.6c-16.4-34.6-40.4-63.1-73.4-82.8c-29.5-17.6-62.4-28.5-94.6-40.1
					c-33.2-12-66.8-25-94.7-47c-30.8-24.3-51.9-58.2-66.1-94.3c-14.7-37.2-22.8-76.8-29.4-116.1c-8.1-48-15.1-96.3-21.2-144.6
					c-1.5-11.9-2.9-23.8-4.3-35.7c-1.1,1-2.3,1.9-3.4,2.9c116.2,41,247.9,89.5,306.8,207.2c31.7,63.3,25.9,134.1,33.3,202.5
					c7.8,71.6,33,139.6,58.3,206.6c28.9,76.4,57.8,152.8,86.7,229.2c1.5-0.7,3.1-1.5,4.6-2.2c-17.4-43-33.1-86.7-46.9-130.9
					c-6.8-21.8-13.2-43.8-19.2-65.9c-5.6-20.6-13.1-42.3-14.3-63.8c-2.3-39,35.3-61,56.7-88.2c20.8-26.5,34.5-58.3,40.7-91.4
					c7-37.6,3.7-76.8-10.1-112.6c-0.6-1.7-2.8-1.7-4-0.8c-22.9,16.6-52.9,18.8-75.2,36.7c-19,15.3-31,38-37.8,61.1
					c-16.7,56.8-8.9,119.3,6.5,175.4c16.6,61,42.7,118.7,64.8,177.8c22.1,59,38.1,119.8,54.8,180.5c18.4,66.9,38,133.8,68.8,196.2
					c1.1-1.2,2.1-2.4,3.2-3.5c-14.2-6-18.3-23.1-22.5-36.5c-5.5-17.6-10.9-35.2-16.2-52.9c-10.4-34.5-20.5-69-30.3-103.6
					s-19.4-69.3-28.6-104.1c-4.6-17.4-9.4-34.8-13.6-52.3c-4.1-16.8-7.4-34.1-6.1-51.5c2.3-31,21.6-55.8,39.1-80.1
					c17.4-24.2,31.7-50.1,40.9-78.6c9.8-30.7,12.4-61.8,13.1-93.8c0.7-31.6,2.5-62.8,15.6-92.1c23.2-52,70.2-90.3,114.1-124.4
					c6.5-5,16.4-12.4,24.7-6.6c6.1,4.3,7.6,13.2,9,20c3.2,14.5,6.2,29.1,8.8,43.7c5.3,29.8,8.9,60.3,6.7,90.6
					c-2.2,30.9-10.9,60.6-27.7,86.8c-17.8,27.7-41.5,51.4-64.2,75c-24.2,25.2-49.2,49.8-74.9,73.6c-13,12-26.1,23.9-39.4,35.6
					c-12.1,10.6-25,20.5-36.2,32.1c-9.6,10-17.2,21.4-20.8,34.9c-3.4,12.8-3.5,26.2-2,39.4c1.7,14.7,5.4,29.2,9.1,43.5
					c4.6,17.6,9.5,35.1,14.5,52.6c19.5,68.1,42,135.4,67.3,201.7c6.3,16.6,12.9,33.1,19.5,49.6
					C1544.6,1170.9,1549.3,1168.6,1548,1165.6L1548,1165.6z"/>
			</g>
			<g>
				<path class="st3" d="M1425.4,826c-12.1-77,47.4-136,92.4-189.8c25.4-30.4,46-63.5,62.7-99.4c17-36.7,30.4-75,43.6-113.2
					c16.1-46.6,31.3-93.4,45.6-140.5c1-3.2-3.9-4.9-4.8-1.8c-12.9,42.3-26.5,84.5-40.8,126.4c-13.3,39-26.7,78.1-43.3,115.9
					c-16.4,37.3-36.6,72.4-62.5,104c-24.3,29.7-51.5,57.2-71.5,90.1c-20,32.8-32.5,70.6-26.5,109.3
					C1420.9,830.2,1425.9,829.3,1425.4,826L1425.4,826z"/>
			</g>
			<g>
				<path class="st3" d="M1452.9,350.6c-12.9,20.2-25.9,40.4-38.8,60.7c-11.4,18-22.4,36.4-30.2,56.3
					c-14.8,37.6-19.7,78.3-20.9,118.5c-0.7,23.3-0.2,46.7,0.4,70c0.1,3.3,5.2,3.7,5.1,0.5c-1-40.1-1.9-80.5,3.5-120.3
					c2.7-20,7-39.7,13.7-58.8c7.2-20.4,17.6-39.2,29.1-57.6c13.9-22.2,28.2-44.2,42.4-66.3C1458.9,350.8,1454.7,347.9,1452.9,350.6
					L1452.9,350.6z"/>
			</g>
			<g>
				<path class="st3" d="M971.6,56.6c49.8,72,112.4,133.7,166.4,202.5c54.8,69.8,100.1,146.3,141.6,224.6
					c23.2,43.8,45.3,88.2,67.4,132.6c1.5,3,6.1,0.7,4.6-2.2c-39.6-79.6-79.3-159.4-125.5-235.5c-22.6-37.3-46.8-73.7-73.2-108.5
					c-26.4-34.9-55.3-67.8-84.1-100.8c-32.6-37.4-65.1-75.1-93.3-116C973.6,50.5,969.8,53.9,971.6,56.6L971.6,56.6z"/>
			</g>
			<g>
				<path class="st3" d="M950,351c36.7,57.1,86,105.8,143.7,141.5c31.3,19.3,65.1,33.9,99.1,47.7c33.6,13.7,68,26.7,99.2,45.5
					c29.8,18,53.4,42.1,71.5,71.8c1.7,2.8,6.3,0.6,4.6-2.2c-15.3-25.2-34.5-47.2-58.7-64.3c-27.6-19.5-59.2-32.8-90.3-45.6
					c-35.5-14.6-71.5-28.2-105.1-46.9c-30.2-16.8-58.5-37.1-84.1-60.4c-28.9-26.3-54.3-56.4-75.4-89.3
					C952.9,346,948.2,348.2,950,351L950,351z"/>
			</g>
			<g>
				<path class="st3" d="M761.1,738.5c24.9-2,48.6,7.7,70.7,18c23.5,11,46.6,22.8,69.3,35.3c45.7,25,90.1,52.4,134.3,80.1
					c21.7,13.6,43.3,27.5,65.1,40.9c20.5,12.6,41.6,24.6,64.6,31.9c46.7,15,97.2,10.1,144.1,24.5c27.7,8.6,53.9,21.6,80.3,33.5
					c28.3,12.8,56.6,25.6,84.9,38.4c3,1.4,4.7-3.5,1.8-4.8c-25.2-11.4-50.5-22.8-75.7-34.2c-24.3-11-48.4-22.7-73.4-32.1
					c-23.3-8.8-47.1-13.4-71.8-16.2c-24.6-2.7-49.6-4.2-73.8-9.9c-24.6-5.8-47.1-16.9-68.7-29.7c-22.1-13.1-43.7-27.2-65.5-40.9
					c-44.4-27.9-89-55.6-134.8-81.1c-25.3-14.1-51-27.4-77.3-39.7c-23.6-11.1-48.4-21.1-75-19C756.9,733.7,757.8,738.8,761.1,738.5
					L761.1,738.5z"/>
			</g>
			<g>
				<path class="st3" d="M1513.5,1069.2c-8.9-65.7,26.7-134.9,85.7-165.2c37.6-19.3,80.4-22.9,122-22.9c21.2,0,42.3,0.8,63.5,1.1
					c20.5,0.3,41-1.1,61.5-0.7c11.3,0.2,22.6,1.2,33.5,4.2c9.5,2.6,18.6,6.7,27.5,10.8c17.7,8.1,35.3,17.6,54.5,21.4
					c3.2,0.6,3.7-4.5,0.5-5.1c-18.5-3.6-35.5-12.9-52.4-20.7c-17.2-7.9-34.1-13.8-53.1-15.1c-21.2-1.5-42.6,0.5-63.8,0.4
					c-21.8-0.1-43.6-1-65.4-1.2c-41.9-0.2-85,2.3-123.6,20.1c-30.8,14.1-56.3,38.1-73.3,67.3c-18.7,32.1-27,69.8-22.1,106.7
					C1508.9,1073.4,1514,1072.4,1513.5,1069.2L1513.5,1069.2z"/>
			</g>
			<g>
				<path class="st3" d="M1496.3,1097.6c-44.4-17.5-91,5.1-124.1,34.8c-18.2,16.4-34.4,35-50.1,53.8c-16.1,19.3-31.4,39.4-45.7,60.1
					c-16.1,23.2-30.9,47.3-44.5,72c-1.6,2.9,2.6,5.8,4.2,2.9c23.1-41.9,49.8-81.9,79.7-119.3c15.1-18.8,30.9-37.3,47.9-54.4
					c16.6-16.6,35.1-32,56.8-41.5c23.3-10.1,50-13.1,74-3.7C1497.6,1103.6,1499.3,1098.8,1496.3,1097.6L1496.3,1097.6z"/>
			</g>
		</g>
		<g>
			<g>
				<path class="st3" d="M2571.6,447.4c68.6,30.5,135.9,63.9,201.5,100.5c31.8,17.7,63.6,35.8,94.2,55.3
					c26.4,16.8,52.8,38.1,56.2,71.3c1.7,16.5-1,33.3-2.5,49.7c-1.6,17.6-2.9,35.3-3.9,53c-2.2,36.2-3.3,72.4-3.3,108.6
					c0,33.3-0.7,67.5,5.1,100.5c5.3,29.9,17.8,57.3,36.3,81.2c18.6,24.1,41.8,44.2,66,62.4c12.2,9.2,24.8,17.9,37.4,26.4
					c9,6.1,20.3,16.1,32.1,14.3c14.2-2.2,16.5-18.8,18-30.4c1.9-14.5,3.8-29.1,5.1-43.6c2.6-28.4,3.5-57.4-0.8-85.7
					c-4.3-28.4-14.3-55.3-31.1-78.7c-19.9-27.8-46.3-50.2-66.1-78c-18.9-26.6-32.6-56.8-40.2-88.5c-6.9-28.8-7.1-59.2-17.1-87.2
					c-11.4-31.7-37.4-51.1-65-68.2c-32-19.7-64.2-39-96.6-58.1c-32.5-19.2-65.1-38-97.9-56.6c-16.4-9.3-32.8-18.5-49.3-27.7
					c-14.5-8.1-28.9-16.7-43.8-23.9c-10.5-5-21.9-8.3-33.1-4c-2.1,0.8-1.9,4,0.2,4.8c114.8,41.2,213.1,115.4,320.9,170.7
					c108.1,55.4,238.4,92.1,311.1,196.7c16.1,23.2,28.7,51.1,27.6,80c-1.2,31.6-23.9,55.8-29.2,86.2c1.1-0.7,2.3-1.4,3.4-2.2
					c-64.4-29.9-110-95.3-116.5-165.9c-3-32.1,7-70.3-15.6-97.3c-13.2-15.8-33.2-25.8-50.5-36.3c-19.5-11.9-39.3-23.4-59.3-34.5
					c-44.6-24.8-90.4-47.6-137-68.4c-3-1.4-4.7,3.4-1.8,4.8c66.9,31.6,133.7,63.2,200.6,94.9c66.6,31.5,134.7,62.3,193.2,107.9
					c55,42.8,99.2,100.6,165.1,128c54.4,22.7,115.6,24.7,173.1,14.9c73-12.5,141.1-43.6,208-74.1c1.9-0.8,1.9-3.2,0.5-4.4
					c-38-31.2-76.6-61.7-115.8-91.3c-32.8-24.8-65.9-49.6-101.8-69.8c-32.8-18.4-68.5-33-106.3-36.9c-35.2-3.6-69.4,3.8-102.2,16.2
					c-66.1,25-130.5,68.6-204.4,54.6c-43.8-8.3-83.1-31.9-121.9-52.7c-42.5-22.9-85.1-45.5-127.7-68.1
					c-87.4-46.3-175-92.4-262.1-139.2c-10.6-5.7-21.2-11.4-31.9-17.2c-2.8-1.5-5.9,2.4-3,4.2c137.4,83.9,283,153,430.1,218
					c36.6,16.2,73.3,32.2,110.1,48.1c29.5,12.8,59.3,25.1,90.3,34c29.4,8.4,59.8,13.6,90.4,11.9c30.5-1.7,59.3-11.2,86-25.9
					c60.7-33.4,110.4-89.1,179.6-105.7c1.8-0.4,2.9-2.6,1.6-4.1c-72.2-89.8-212.6-114.2-311.6-55.4
					c-55.3,32.8-94.8,98.3-162.6,107.3c-33.3,4.4-66.4-5.8-96.5-19.1c-34.1-15.1-66.7-33.9-99.6-51.4
					c-85.7-45.5-171.4-91.1-257.1-136.6c-2.5-1.3-4,2.2-2.9,4c22.4,35.6,56.7,61.1,82.8,93.6c12.9,16.1,23.6,34.3,27.5,54.8
					c4.4,23.2-0.5,46.7-8.5,68.5c-8.7,23.9-20.3,46.9-31.9,69.6c-13,25.5-27.1,50.5-42.1,74.9c-13.5,22.1-28.3,44.8-50.5,59
					c-16.4,10.4-35.6,15-54.8,16.8c-42.6,4-86.3-3.9-127.8,9.2c1.2,1.1,2.3,2.2,3.5,3.2c25.2-74,65.7-142.5,118.4-200.3
					c26.5-29.1,56.2-53.6,87-77.8c25.9-20.3,49.3-45.4,46.8-80.6c-2.3-32.5-23.1-61.4-42.1-86.5c-1.3,1.1-2.7,2.1-4,3.2
					c18,20.5,47.7,23.1,72.9,17.2c28.9-6.8,55-22.3,84.5-26.7c28.4-4.3,57.2-0.7,85.5,2.2c28.2,2.9,56.1,4.2,84.4,1.4
					c56.7-5.5,111.4-23.7,164.1-44.6c56.3-22.4,113.3-45.6,166.3-75.1c26.1-14.5,51.2-30.9,73.8-50.5c11-9.5,21.3-19.8,30.8-30.8
					c8.6-10,17.5-20.7,23.1-32.8c4.6-10,6.3-21.5,0.6-31.4c-6.2-10.9-18.9-15.7-30.5-18.3c-14.7-3.3-29.9-4.5-44.8-6.4
					c-15.3-2-30.6-3.8-46-5.5c-115.1-12.3-238.9-10.9-338.9,55.1c-22.8,15-43.5,33.3-60.8,54.4c-21.1,25.8-35.9,55.8-53.8,83.7
					c-17.6,27.3-39.1,50.6-65.6,69.4c-25.2,17.9-53,31.7-81.2,44.1c-14,6.1-28.1,11.9-42.2,17.6c1,0.2,2,0.5,3,0.7
					c-14.2-21.3-36.3-35.7-61.4-40.4c-0.2,1.7-0.3,3.4-0.5,5.1c50.3-0.9,94.6-31.1,121.9-72.1c30.1-45.1,36.6-100.2,26.6-152.8
					c-5.3-27.8-14.9-54.7-27.3-80.2c-6-12.3-12.6-24.2-19.8-35.8c-5.9-9.5-14.9-21.6-27.5-15.2c-8.9,4.5-13.6,15.3-16.2,24.3
					c-4.1,14.6-6.9,29.7-9,44.7c-4.1,30.7-4.3,61.9-0.5,92.6c4.5,35.8,16.2,70.8,16.7,107.1c0.5,34.3-12,73.1-44.8,89.2
					c-3,1.5-0.9,6.1,2.1,4.7c24.2-11.9,38.5-35.8,44.5-61.4c6.5-28,2.3-56.7-3.2-84.5c-5.9-29.6-11.9-58.8-12.8-89.1
					c-0.8-29.2,1.9-58.6,8.3-87.2c2.5-11.4,4.9-27.1,15.1-34.5c14.3-10.4,25.6,16.3,31.1,25.9c13.4,23.7,24.6,48.9,32.1,75.1
					c14.5,50.4,15.6,105.9-7.8,153.7c-24.1,49.2-72.5,89.5-129,90.4c-3.3,0.1-3.8,4.5-0.5,5.1c23.8,4.4,44.5,18.4,57.9,38.5
					c0.6,1,2.1,1.1,3,0.7c53.4-21.7,108.8-44.4,151.5-84.4c45.5-42.6,64.8-104.5,108.2-148.8c81.1-82.6,202.7-101.5,313.4-96.2
					c30,1.4,60,4.4,89.8,8c14.6,1.7,29.1,3.6,43.6,5.5c14.5,1.9,31.3,2.7,43.5,11.6c26.5,19.3-4.7,53.8-19.1,70
					c-20,22.4-43.6,41.3-68.6,57.7c-49.6,32.4-104.9,55.2-159.4,78.1c-51.5,21.7-103.9,42.4-158.8,53.4c-27.1,5.5-54.8,8.5-82.6,8
					c-27.6-0.6-55-5.1-82.6-6.7c-26.3-1.5-51.8,0.5-76.8,9.1c-27.6,9.5-54.8,24.2-84.9,21.4c-14.3-1.3-27.9-6.7-37.5-17.7
					c-2.2-2.5-6,0.6-4,3.2c17.4,22.9,35.7,48.2,40.3,77.3c2.6,16.2-0.4,32.6-9,46.7c-10.2,16.5-25.8,28.8-41,40.5
					c-58.9,45.2-109.5,98.9-148.3,162.5c-21.8,35.7-39.5,73.8-53,113.3c-0.8,2.2,1.4,3.9,3.5,3.2c39.3-12.4,81.1-5.5,121.4-8.4
					c18.7-1.3,37.6-4.9,54.3-13.6c22.1-11.5,37.9-31.1,51.3-51.6c15.4-23.7,29.4-48.4,42.7-73.3c12.8-24.1,25.2-48.5,35.6-73.7
					c8.6-21,15.5-43.4,15-66.3c-0.5-20.4-7.3-39.5-18.1-56.7c-26-41.5-68.9-69.1-95-110.6c-1,1.3-1.9,2.7-2.9,4
					c75.7,40.3,151.5,80.5,227.2,120.8c35.3,18.7,70.3,38.1,106,56.1c28.2,14.2,58,27.1,89.6,30.7c31.8,3.6,61.9-4.5,88.8-21.6
					c28-17.8,51-42.2,76.4-63.3c23.3-19.3,49-34.4,77.9-43.5c28-8.8,57.7-12.2,87-10.5c65.9,3.8,130.6,33.1,172.3,85
					c0.5-1.4,1.1-2.8,1.6-4.1c-59.9,14.4-105.7,57.8-155.8,90.9c-25.9,17.1-53.9,31.7-84.6,37.7c-30.6,5.9-62.1,3.5-92.4-3.3
					c-31.2-7-61.2-18.3-90.7-30.6c-35.1-14.7-69.9-30.2-104.8-45.5c-72.9-32-145.5-64.8-217.1-99.8c-80.9-39.5-160.4-82-237.3-128.9
					c-1,1.4-2,2.8-3,4.2c85.7,46.2,171.8,91.7,257.9,137.2c44,23.3,88,46.6,132,70.2c38.9,20.8,77.3,44.4,118.7,60
					c35.8,13.5,72.9,17.4,110.3,8.6c33.5-7.8,64.7-22.8,95.9-36.8c32.2-14.4,65.4-28.3,100.8-31.9c39-4,77.7,5.8,113.1,21.9
					c36.4,16.6,69.7,39.4,101.8,63.1c39.2,28.9,77.7,58.8,115.7,89.4c9.3,7.5,18.6,15.1,27.8,22.7c0.2-1.5,0.3-3,0.5-4.4
					c-112.1,51.1-240.6,107.7-364.7,63.9c-66.8-23.6-111.7-78.6-164.6-122.6c-55.3-46.1-120.7-77.6-185.4-108.2
					c-73.8-34.9-147.7-69.9-221.6-104.8c-0.6,1.6-1.2,3.2-1.8,4.8c42.4,18.9,84,39.4,124.7,61.7c20.1,11,39.9,22.3,59.6,34.1
					c18.3,11,38.8,21.4,54.6,35.9c28.7,26.5,16.9,68.4,20.5,102.8c3.4,33.5,15.6,65.9,34.2,94c21.1,31.9,50.7,57.9,85.4,74
					c1.6,0.8,3.2-0.7,3.4-2.2c4.9-27.9,25-50.3,28.6-78.6c3.1-24.2-4-48.9-15.2-70.2c-27.5-52.5-76.5-92-126.5-121.8
					c-54.3-32.3-113.2-55.8-170.1-82.9c-56.9-27.1-110.7-59.8-164.8-91.9c-59.6-35.3-120.3-69.9-185.7-93.4c0.1,1.6,0.1,3.2,0.2,4.8
					c14.4-5.5,29.3,3.9,41.5,10.6c16.2,8.9,32.3,17.8,48.3,26.8c31.4,17.6,62.7,35.4,93.8,53.5c31.1,18.1,62.1,36.4,92.9,55
					c15.4,9.3,30.9,18.5,46.2,28.2c14.6,9.3,29,19.4,40.1,32.8c19.8,23.9,23.2,55.1,27.5,84.8c4.3,29.6,12,58.1,25.2,84.9
					c14.2,28.9,34,53.1,55.8,76.6c21.5,23.3,41.8,46.9,52.8,77.1c19.4,53.5,12.2,113.7,4.2,168.7c-1.2,8.1-3.2,20.4-13.2,21.9
					c-7.4,1.1-14.6-4.2-20.4-8.1c-12.4-8.3-24.6-16.6-36.7-25.4c-24.5-17.8-48.2-37.2-67.8-60.5c-19.9-23.7-34.3-51.2-40.3-81.7
					c-6.4-32.3-5.8-65.8-5.9-98.6c-0.1-35,0.9-70,2.8-104.9c1-17.7,2.2-35.3,3.7-53c1.3-16,3.7-32.1,3.7-48.2
					c0-13.8-2.5-27.3-9.3-39.5c-6.5-11.6-15.7-21.3-25.9-29.7c-11.4-9.5-24.1-17.3-36.8-24.9c-15.5-9.4-31.2-18.7-47-27.8
					c-61.4-35.5-124.3-68.3-188.4-98.4c-16.1-7.5-32.3-14.9-48.5-22.1C2570.3,441.3,2568.6,446.1,2571.6,447.4L2571.6,447.4z"/>
			</g>
			<g>
				<path class="st3" d="M2895.6,606.6c62.2,47,60.3,130.8,65.3,200.7c2.8,39.5,11,77.7,24,115.1c13.2,38.2,30.2,75.1,47.2,111.8
					c20.7,44.7,42.3,89,64.7,132.8c1.5,2.9,6.2,0.9,4.7-2.1c-20.1-39.4-39.6-79.2-58.4-119.3c-17.5-37.3-35.1-74.8-49.3-113.4
					c-14.1-38.3-23.9-77.5-27.3-118.2c-3.1-38.2-2.7-76.9-11-114.5c-8.4-37.5-25.6-73.4-56.9-97
					C2895.9,600.5,2892.9,604.7,2895.6,606.6L2895.6,606.6z"/>
			</g>
			<g>
				<path class="st3" d="M3205.9,967.8c-4.7-23.5-9.4-47.1-14.2-70.6c-4.3-20.9-9.2-41.7-17.4-61.5c-15.5-37.4-40.2-70-67.2-99.8
					c-15.7-17.3-32.3-33.7-48.9-50.1c-2.3-2.3-6.3,0.9-4,3.2c28.6,28.2,57.2,56.6,81,89c11.9,16.2,22.5,33.5,30.9,51.8
					c9,19.7,14.6,40.4,19.1,61.6c5.4,25.7,10.4,51.4,15.6,77.2C3201.5,971.9,3206.6,971.1,3205.9,967.8L3205.9,967.8z"/>
			</g>
			<g>
				<path class="st3" d="M3756.4,845.3c-85.8-17.2-173.7-18.2-260.3-30.2c-87.9-12.2-173.6-35.8-257.8-63.3
					c-47.2-15.4-93.9-32-140.6-48.6c-3.1-1.1-4.9,3.7-1.8,4.8c83.8,29.8,167.8,59.7,253.8,82.3c42.2,11.1,84.9,20.5,128,27.3
					c43.3,6.8,86.9,10.4,130.5,14.2c49.4,4.3,99,8.9,147.7,18.6C3759.2,851,3759.6,845.9,3756.4,845.3L3756.4,845.3z"/>
			</g>
			<g>
				<path class="st3" d="M3567.6,618.4c-66-15.7-135.3-16.5-201.7-2c-36,7.9-70.4,20.8-104.5,34.5c-33.7,13.5-67.5,28-102.9,36.1
					c-33.9,7.7-67.7,6.8-101.3-2c-3.2-0.8-5,4-1.8,4.8c28.5,7.5,57.6,10,86.9,5.5c33.4-5.1,65.4-17.5,96.6-29.9
					c35.7-14.1,71-29.3,108.2-39.2c33.4-8.9,67.9-13.9,102.4-14.9c39.1-1.1,78.2,2.9,116.3,11.9
					C3568.9,624,3570.8,619.2,3567.6,618.4L3567.6,618.4z"/>
			</g>
			<g>
				<path class="st3" d="M3434.4,208.3c-16.6,18.7-40.3,28.2-63.4,36.1c-24.5,8.4-49.4,15.9-74.4,22.8
					c-50.3,13.8-101.2,24.9-152.2,35.6c-25.1,5.3-50.2,10.3-75.3,15.8c-23.5,5.1-47,11.2-68.6,21.9c-44.1,21.6-76.9,60.2-120.7,82.4
					c-25.9,13.1-53.8,21.9-81,31.6c-29.3,10.5-58.5,20.9-87.8,31.4c-3.1,1.1-1,5.8,2.1,4.7c26.1-9.3,52.2-18.6,78.2-28
					c25.1-9,50.6-17.3,75.1-27.9c22.8-9.8,43.3-23.1,62.9-38.2c19.6-15.2,38.6-31.4,59.9-44.1c21.7-12.9,45.6-20.5,70.1-26.3
					c25.1-5.9,50.4-10.8,75.6-16c51.3-10.7,102.6-21.7,153.3-35.3c28-7.5,55.8-15.7,83.2-25.1c24.6-8.4,49.5-18.5,67.2-38.4
					C3440.8,208.8,3436.6,205.9,3434.4,208.3L3434.4,208.3z"/>
			</g>
			<g>
				<path class="st3" d="M2663.3,492.9c52,41.1,74.4,115.6,53,178.4c-13.6,40-42,72.3-71.9,101.2c-15.2,14.7-31,28.8-46.4,43.3
					c-14.9,14-28.7,29.2-43.7,43.2c-8.2,7.7-17.1,14.9-27,20.3c-8.7,4.7-18,8.1-27.3,11.4c-18.3,6.5-37.6,11.8-54.1,22.5
					c-2.8,1.8,0.5,5.8,3.2,4c15.8-10.2,34.5-15.3,52.1-21.5c17.8-6.2,34.1-13.7,48.7-26c16.3-13.7,30.3-29.9,45.7-44.6
					c15.8-15,32.1-29.5,47.9-44.6c30.3-28.9,59.5-60.7,75-100.3c12.3-31.6,14-66.5,6-99.3c-8.8-36.1-29-69-58.2-92.1
					C2663.7,486.6,2660.7,490.8,2663.3,492.9L2663.3,492.9z"/>
			</g>
			<g>
				<path class="st3" d="M2656,460.4c44.2-18.2,62-66.9,65.1-111.2c1.7-24.4,0.4-49.1-1.3-73.5c-1.8-25.1-4.7-50.1-8.8-75
					c-4.6-27.9-10.6-55.5-18-82.7c-0.9-3.2-5.9-2.4-5.1,0.8c12.5,46.2,21.1,93.5,25.4,141.2c2.2,24,3.7,48.3,3.3,72.5
					c-0.4,23.5-3,47.4-12.1,69.2c-9.7,23.4-26.9,44.2-50.7,54C2650.9,457,2653,461.7,2656,460.4L2656,460.4z"/>
			</g>
		</g>
		<g>
			<g>
				<path class="st3" d="M6327.6,253.8c55.7-25.5,85.4-89.8,147-104.7c56.3-13.6,114,11.7,169,21c37.1,6.3,74.9,8,112.4,5.4
					c0.9-3.1,1.8-6.1,2.8-9.2c-60.8,18.9-121.7,37.9-183.2,54.5c-31,8.4-62.1,16.2-93.5,23.1c-29.3,6.5-59.3,13.9-89.3,15.1
					c-26,1-51.1-6.5-75-16.2c-2.5-1-6.3,8.1-3.8,9.2c19.2,7.9,40.4,15.2,61.2,16.2c29.9,1.6,59.9-5.6,89-11.8
					c62.8-13.3,124.8-30.3,186.3-48.6c35.3-10.5,70.4-21.4,105.5-32.3c2.2-0.7,5.9-9.4,2.8-9.2c-34.8,2.4-69.7,1.1-104.1-4.2
					c-29.6-4.5-58.3-12.8-87.6-18.9c-26.3-5.5-53.8-9.5-80.6-5.1c-28.2,4.6-51.7,19.5-72.7,38.3c-26.8,23.9-50.1,53-83.5,68.2
					C6327.7,245.8,6325.9,254.6,6327.6,253.8L6327.6,253.8z"/>
			</g>
			<g>
				<path class="st3" d="M6758.9,166.3c-80.3,0.1-160.4,12.1-239.7,23.3c-19.5,2.8-39.1,5.5-58.6,8.2c-19,2.6-38.6,4.4-56.4,11.8
					c-19.6,8.2-35.6,22.1-56.5,27.6c-18.1,4.8-36.8,6-55,10.3c-26.2,6.2-67.5,11.6-75.1,42.8c-1.5,6.1,3.9-1,4.6-3.5
					c1.7-7,11.2-11.9,17-14.8c6.9-3.4,14.3-5.9,21.7-8.1c13.9-4.1,28.3-7.6,42.5-10.1c18.2-3.3,36.9-4.7,54.2-11.6
					c18-7.3,32.9-20.3,51.5-26.3c17.3-5.6,35.7-7.2,53.7-9.6c17.9-2.4,35.7-5,53.5-7.5c37.9-5.3,75.9-10.6,114-14.9
					c41.8-4.7,83.7-8.3,125.8-8.4C6758.4,175.5,6761.5,166.3,6758.9,166.3L6758.9,166.3z"/>
			</g>
			<g>
				<path class="st3" d="M6312.2,350.4c59.3-8.5,117,11.9,170.7,35c31,13.3,63.7,25.6,87.1,50.8c23.4,25.3,41,56.2,61.7,83.7
					c24.3,32.5,50.2,63.7,77.3,93.9c1.4-2.9,2.9-5.8,4.3-8.8c-35.3-10.7-70.5-21.4-105.8-32.2c-33.2-10.1-66.8-19.8-98.1-35
					c-29.3-14.2-54.2-33.6-74.4-59.2c-18.3-23.2-33.1-49-50.1-73.1c-18.4-26.2-39.9-50.7-69.5-64.4c-2.8-1.3-6.7,7.8-3.8,9.2
					c55.4,25.7,80.3,86.5,115.4,132.6c18.6,24.4,40.8,43.9,67.7,58.6c29.9,16.2,62.6,26.4,95,36.3c39.9,12.2,79.9,24.3,119.8,36.4
					c2.9,0.9,6.1-6.8,4.3-8.8c-24.3-26.9-47.5-54.8-69.6-83.7c-21.7-28.4-40.4-59.5-63.3-87c-22.7-27.1-52.8-40.5-84.5-54.4
					c-27.8-12.1-55.9-23.7-85.2-31.6c-31.4-8.5-64.1-12.3-96.4-7.7C6311.8,341.6,6309.1,350.9,6312.2,350.4L6312.2,350.4z"/>
			</g>
			<g>
				<path class="st3" d="M6701.3,589.8c-77.6-15.9-129.8-80.8-185.5-131.6c-30-27.4-62.8-51.4-98.3-71.1
					c-32.2-17.9-66.4-30.4-100.5-44.1c-33.7-13.5-72.1-29-95-58.6c-1.6-2.1-6.3,6.2-4.6,8.4c19.8,25.6,51.1,40.4,80.1,52.9
					c33.1,14.2,67.3,25.4,99.5,41.8c37.3,19,72.3,42.5,103.8,70c29.2,25.4,55.7,53.8,84.8,79.4c32.5,28.5,68.8,53.3,111.8,62.1
					C6700.4,599.5,6703.5,590.2,6701.3,589.8L6701.3,589.8z"/>
			</g>
			<g>
				<path class="st3" d="M6164.4,286.8c113.9,18.2,230.4,11,343.9,32.7c29.2,5.6,58.3,13.2,85.5,25.4c4.2,1.9,8.1-7.2,3.8-9.2
					c-49.9-22.4-105.8-30.4-159.8-36.1c-60.3-6.4-121-8.7-181.4-12.9c-30.1-2.1-60.2-4.6-90-9.4
					C6162.1,276.5,6159.4,286,6164.4,286.8L6164.4,286.8z"/>
			</g>
			<g>
				<path class="st3" d="M6558.1,331c56.4-19,121.3-13.3,178.4-0.3c27.6,6.3,55,14.9,80.4,27.4c35.2,17.2,66.3,41.4,96.1,66.5
					c34.5,29.1,68.5,58.9,102.8,88.4c1.2-2.9,2.5-5.9,3.7-8.8c-35.7-4.2-71.5-8.3-107.2-12.5c-34.9-4.1-68.3-9.5-96.2-32.5
					c-13.2-10.9-24.7-23.5-37.4-35c-12.1-11-25.2-20.1-39.9-27.3c-27.3-13.4-56.5-23.2-84.4-35.2c-31.3-13.5-62.4-27.5-94.2-39.9
					c-4.1-1.6-7.9,7.6-3.8,9.2c28.3,11,56.1,23.4,84,35.5c28.1,12.2,56.9,22.9,84.9,35.2c16.3,7.1,31.3,16,44.7,27.7
					c13.3,11.6,25.1,24.7,38.5,36.1c25.7,21.9,55.6,30,88.5,34.2c40.1,5.1,80.3,9.4,120.5,14.1c3.4,0.4,6.2-6.6,3.7-8.8
					c-31.4-27.1-62.7-54.2-94.3-81.2c-30-25.6-60.9-50.7-95.8-69.4c-53-28.6-115.8-42-175.6-44.2c-32.6-1.2-66,1.2-97.1,11.7
					C6554.5,323.1,6553.1,332.7,6558.1,331L6558.1,331z"/>
			</g>
			<g>
				<path class="st3" d="M6556.9,331.1c59.4-1.9,119,12.3,174.6,32.2c55.7,20,109.6,46.8,157.3,82c32.8,24.2,64.3,51.5,103.6,64.5
					c3.1,1,6.8-8.2,3.8-9.2c-35.4-11.7-64.5-35-93.9-57.2c-23.9-18.1-48.8-34.3-75.1-48.5c-54.2-29.1-112.8-51.4-173.1-64
					c-31.1-6.5-62.8-10.3-94.6-9.2C6556.4,321.9,6553.4,331.2,6556.9,331.1L6556.9,331.1z"/>
			</g>
		</g>
		<g>
			<g>
				<path class="st3" d="M3965.8,806.3c-57.3-21.7-123.9,2.4-177.8-31c-49.3-30.5-71.9-89.3-103.9-135
					c-21.6-30.8-46.9-58.8-75.2-83.7c-2.8,1.5-5.7,3-8.5,4.5c56.2,30,112.5,59.9,167.6,92c27.7,16.1,55.2,32.8,82.2,50.2
					c25.2,16.3,51.6,32.4,73.5,52.9c19,17.7,31.3,40.9,41.1,64.7c1,2.5,10.2-1.2,9.2-3.7c-7.9-19.2-17.6-39.4-31.5-55
					c-19.9-22.4-46.1-38.6-70.9-55c-53.6-35.4-109.3-67.5-165.6-98.4c-32.2-17.7-64.7-35-97.2-52.3c-2.1-1.1-10.8,2.5-8.5,4.5
					c26.1,23,49.7,48.8,70.2,77c17.6,24.2,31.9,50.5,48.1,75.6c14.6,22.6,31.1,44.9,53.1,60.9c23.1,16.8,50.2,23,78.3,24.8
					c35.8,2.2,72.9-1.6,107.2,11.4C3960,811.8,3967.6,806.9,3965.8,806.3L3965.8,806.3z"/>
			</g>
			<g>
				<path class="st3" d="M3600.4,561c56.5,57.1,121.3,105.6,185.1,154.2c15.7,12,31.4,23.9,47,36c15.2,11.7,30.2,24.4,48.1,31.8
					c19.6,8.2,40.8,9.8,59.3,20.7c16.1,9.5,30.2,22,46,31.9c22.8,14.3,55.7,39.8,83.3,23.3c5.4-3.2-3.5-2.1-5.7-0.8
					c-6.2,3.7-16.3,0.4-22.5-1.7c-7.3-2.5-14.3-6-21-9.8c-12.7-7-25.3-14.8-37.1-23.1c-15.1-10.6-29.3-23-46.4-30.4
					c-17.8-7.7-37.6-9.1-54.9-18.1c-16.2-8.4-30.2-20.4-44.6-31.4c-14.3-11-28.6-21.9-42.9-32.8c-30.5-23.2-60.9-46.5-90.7-70.6
					c-32.7-26.4-64.8-53.7-94.4-83.6C3607.2,554.9,3598.6,559.2,3600.4,561L3600.4,561z"/>
			</g>
			<g>
				<path class="st3" d="M4045.3,749.3c-47.8-36.2-73.8-91.6-95.2-146c-12.3-31.4-26.6-63.3-25.1-97.7
					c1.5-34.4,11.1-68.7,16.2-102.7c6-40.1,10.1-80.5,12.4-121c-3.1,1-6.2,2.1-9.2,3.1c17.2,32.6,34.3,65.2,51.5,97.9
					c16.2,30.7,32.9,61.4,44.1,94.4c10.5,30.9,14.2,62.2,10.2,94.5c-3.6,29.4-11.6,58-16.8,87c-5.7,31.5-8,64,3,94.7
					c1,2.9,10.3-0.7,9.2-3.7c-20.6-57.5,5.1-117.9,13.2-175.2c4.3-30.3,2.6-59.9-6-89.3c-9.5-32.7-25.2-63.1-41-93.1
					c-19.4-37-38.9-73.9-58.3-110.8c-1.4-2.7-9.1,0.5-9.2,3.1c-2.1,36.2-5.6,72.4-10.6,108.3c-4.9,35.4-14,70.6-17.4,106.1
					c-3.4,35.2,8.3,66,20.7,98.3c10.9,28.3,22.4,56.4,37.4,82.8c16.1,28.3,36.3,54.2,62.3,74
					C4039.4,755.8,4047.9,751.2,4045.3,749.3L4045.3,749.3z"/>
			</g>
			<g>
				<path class="st3" d="M3942.1,304.3c43.2,66.3,33.8,149.2,36.8,224.4c1.6,40.5,7.6,80.8,18.6,119.9c9.9,35.5,25,68.6,39.2,102.5
					c14.1,33.5,30,71.7,25.1,108.8c-0.4,2.6,8.9,0.1,9.2-2.7c4.3-32.1-7.2-64.8-18.7-94.1c-13.2-33.5-29.2-65.8-40.2-100.1
					c-12.8-39.9-20.6-81.3-23.2-123c-2.4-38.7-0.8-77.4-3.1-116.1c-2.5-43.2-10.4-86.4-34.4-123.2
					C3949.6,298.1,3940.8,302.4,3942.1,304.3L3942.1,304.3z"/>
			</g>
			<g>
				<path class="st3" d="M4103.9,899.2c-67.1-93.8-154.1-171.6-218.5-267.6c-16.6-24.7-31.6-50.7-42.1-78.6
					c-1.6-4.3-10.8-0.7-9.2,3.7c19.2,51.2,52.8,96.6,86.6,139c37.8,47.4,78.9,92.1,118.4,138.1c19.7,22.9,39,46.1,56.6,70.6
					C4098.3,908,4106.9,903.3,4103.9,899.2L4103.9,899.2z"/>
			</g>
			<g>
				<path class="st3" d="M3858.7,588.1c-53.1-26.8-94.7-76.9-125.6-126.7c-14.9-24.1-28-49.6-37-76.5
					c-12.5-37.1-17.2-76.3-20.3-115.2c-3.6-45-6.3-90.1-9.4-135.2c-3,1.2-5.9,2.4-8.9,3.6c22.2,28.4,44.3,56.7,66.5,85.1
					c21.7,27.7,41.3,55.2,44.5,91.3c1.5,17,0.7,34.1,1.4,51.2c0.7,16.3,3.4,32.1,8.6,47.5c9.7,28.8,23.2,56.5,34.3,84.8
					c12.4,31.8,24.3,63.7,37.8,95c1.7,4,10.9,0.3,9.2-3.7c-12.1-27.9-22.8-56.3-33.8-84.7c-11.1-28.6-23.7-56.6-34.7-85.1
					c-6.4-16.6-10.6-33.4-11.7-51.2c-1.1-17.6-0.1-35.2-1.4-52.7c-2.5-33.7-17.7-60.7-37.9-87c-24.6-32.1-49.8-63.7-74.7-95.6
					c-2.1-2.7-9.1,0.2-8.9,3.6c2.8,41.4,5.5,82.7,8.5,124.1c2.9,39.3,6.8,79,18,116.9c16.9,57.8,51.5,111.8,92,155.9
					c22,24,47.3,46.1,76.5,60.8C3855.6,596.1,3863.4,590.5,3858.7,588.1L3858.7,588.1z"/>
			</g>
			<g>
				<path class="st3" d="M3859.5,588.8c-43.1-40.9-74.9-93.3-99.8-146.8c-25-53.7-43.7-110.8-52.2-169.5
					c-5.8-40.4-8.6-81.9-26.9-119.1c-1.5-3-10.6,0.9-9.2,3.7c16.5,33.4,20.4,70.5,25.3,107c3.9,29.7,9.8,58.8,18.3,87.6
					c17.4,59,42.8,116.4,76.2,168.1c17.2,26.6,36.9,51.9,59.9,73.8C3853.3,595.7,3862.1,591.2,3859.5,588.8L3859.5,588.8z"/>
			</g>
		</g>
	</g>
</g>
</svg>
